<svg width="40" height="40" viewBox="0 0 40 40" fill="none" xmlns="http://www.w3.org/2000/svg">
<g clip-path="url(#clip0_111_229)">
<path d="M5 6.5C3.51562 6.875 5.08589 5.32031 4.49995 6.5C4.0312 7.46094 5.00002 4.97656 5.00002 6C5.00783 7.25781 3.7422 6.07812 4.50001 7C6.5 7.5 -1.10163 5.64844 4.99993 7L14.8402 7.49218L14.9218 8.75H15.4297V10.0781V11.4062L14.8672 11.6875C9.73434 14.25 6.77341 20.9609 7.89059 27.4687C8.90622 33.3359 12.9531 37.8047 18 38.6406C18.9609 38.7969 20.6797 38.7578 21.5625 38.5703C23.9531 38.0391 26.0703 36.7656 27.7422 34.8672C33.3984 28.3984 32.4218 17.5469 25.7422 12.6016C25.1718 12.1797 24.0234 11.5312 23.5468 11.3594L23.164 11.2187V9.98437V8.74218L23.4609 8.79687C24.6172 9 26.9843 11.25 28.4922 13.6016C30.0156 15.9531 31.164 19.0156 31.6797 22.0937C31.8047 22.8047 31.875 23.0391 32 23.1406C32.1484 23.2656 32.3515 23.2812 33.6328 23.2812H35.1093L35.2734 23.0625C35.4375 22.8672 35.4453 22.7969 35.3906 22.0703C34.8437 13.9141 30.8515 7.39843 24.414 4.16406C23.0781 3.5 23.25 3.51562 18.4297 3.51562H14.1953L14.8402 4.84013C14.4417 4.19169 5.38352 6.63762 4.36789 6.27824C3.70383 6.04387 5.70629 6.04374 5 6.5ZM23.7968 5.25C28.3906 7.52343 31.7968 11.7734 33.2734 17.0391C33.6953 18.5703 34.1015 20.8672 34.1015 21.7734V22.0312H33.5234H32.9531L32.789 21.1484C32.1093 17.5625 30.4922 13.9297 28.3984 11.2891C27.2656 9.85937 25.25 8.10937 24.289 7.72656L23.8281 7.53906L19.3672 7.51562L14.8984 7.49218L14.9687 7.20312C15.0703 6.76562 15.0468 5.71875 14.9297 5.21093L14.8203 4.75781L18.8593 4.78125L22.8906 4.80468L23.7968 5.25ZM21.914 9.77343V10.7969L21.7031 10.7578C20.1328 10.4453 18.0937 10.5078 16.8203 10.9062C16.6875 10.9453 16.6797 10.8594 16.6797 9.85156V8.75H19.2968H21.914V9.77343ZM21.0234 11.9141C23.0781 12.2734 24.875 13.2656 26.4687 14.9219C31.4218 20.0547 31.4297 29.25 26.4765 34.375C24.3593 36.5625 21.9218 37.5937 19.1484 37.4766C14.1172 37.2656 9.94528 32.8594 9.05466 26.8125C8.97653 26.3047 8.92966 25.4531 8.92966 24.6484C8.92966 23.8437 8.97653 22.9922 9.05466 22.4844C9.86716 16.9453 13.4375 12.7578 18.0468 11.9141C18.8125 11.7734 20.2031 11.7734 21.0234 11.9141Z" fill="black"/>
<path d="M1.9543 4.08171C0.883983 4.43328 0.15742 5.28484 0.0167953 6.37078C-0.100392 7.25359 0.40742 8.34734 1.17305 8.85515C2.57148 9.77703 4.33711 9.30828 5.07148 7.81609C5.30586 7.34734 5.3293 7.23015 5.3293 6.62859C5.32148 6.0739 5.29023 5.89421 5.11055 5.52703C4.85273 4.99578 4.25898 4.41765 3.75117 4.1989C3.27461 3.99578 2.3918 3.93328 1.9543 4.08171ZM3.32148 5.3864C3.93086 5.68328 4.25898 6.46453 4.04805 7.12078C3.92305 7.48015 3.43086 7.92546 3.02461 8.03484C2.00898 8.30828 1.03242 7.33953 1.30586 6.31609C1.40742 5.94109 1.79805 5.47234 2.12617 5.33171C2.46992 5.17546 2.93086 5.1989 3.32148 5.3864Z" fill="black"/>
<path d="M11.5802 13.5156C7.75205 15.6016 5.27549 19.5 5.02549 23.8359C4.97861 24.6641 4.97861 24.6719 5.18174 24.875C5.50986 25.2031 6.00205 25.125 6.1583 24.7109C6.20517 24.5937 6.25986 24.1562 6.29111 23.75C6.5333 20.0078 8.71299 16.5703 12.0099 14.7187C12.3692 14.5156 12.713 14.2812 12.7755 14.1875C13.002 13.875 12.8927 13.4844 12.5255 13.2969C12.2755 13.1562 12.2052 13.1797 11.5802 13.5156Z" fill="black"/>
</g>
<defs>
<clipPath id="clip0_111_229">
<rect width="40" height="40" fill="white"/>
</clipPath>
</defs>
</svg>
