<svg width="40" height="40" viewBox="0 0 40 40" fill="none" xmlns="http://www.w3.org/2000/svg">
<g clip-path="url(#clip0_112_229)">
<path d="M27.8203 0.078125C26.5156 0.265625 25.3906 0.617188 24.2734 1.1875C21.3203 2.70312 19.2578 5.39844 18.5468 8.67188C18.375 9.45312 18.3125 11.4453 18.4297 12.2734C19.1172 17.1172 22.8828 20.8828 27.7265 21.5703C28.5547 21.6875 30.5468 21.625 31.3281 21.4531C33.3984 21 35.1718 20.0547 36.6797 18.5859C38.2968 17.0156 39.289 15.2188 39.7812 12.9844C40.0312 11.8516 40.0312 9.80469 39.7812 8.67969C39.2812 6.45312 38.3593 4.75781 36.8047 3.19531C34.7734 1.16406 32.3437 0.117188 29.4922 0.0390625C28.8515 0.0234375 28.0937 0.0390625 27.8203 0.078125ZM30.1172 1.71875C32.2265 1.96094 34.1406 2.88281 35.6328 4.36719C38.2422 6.97656 39.0312 10.8359 37.664 14.2578C36.789 16.4297 34.9375 18.3281 32.7578 19.2578C29.3593 20.7188 25.3359 19.9453 22.7109 17.3125C20.2109 14.8125 19.375 11.2109 20.5078 7.84375C20.9453 6.54688 21.6172 5.48438 22.6875 4.40625C23.9218 3.16406 25.1875 2.42969 26.8125 1.99219C28.0312 1.67188 28.9687 1.59375 30.1172 1.71875Z" fill="black"/>
<path d="M29.3244 5.01965C29.2029 4.99756 28.9929 5.0307 28.8493 5.08595C28.3687 5.29034 28.3245 5.50027 28.33 7.82598L28.3356 9.97493L26.1148 9.98597C24.568 9.98597 23.8609 10.0302 23.7559 10.113C23.3471 10.4776 23.2643 10.7483 23.4411 11.1682C23.6289 11.6433 23.7946 11.6764 26.1258 11.6875L28.3356 11.6985L28.33 13.8474C28.33 15.2838 28.3687 16.0737 28.446 16.2174C28.7278 16.709 29.3575 16.7974 29.7553 16.3997C29.9763 16.1787 29.9763 16.1234 29.9873 13.9358V11.693L32.0534 11.6819C33.1914 11.6819 34.2189 11.6598 34.346 11.6322C35.1801 11.461 35.1801 10.2125 34.346 10.0412C34.2189 10.0136 33.1914 9.9915 32.0534 9.9915L29.9873 9.98045V7.7376C29.9818 5.57761 29.9707 5.48922 29.7608 5.27929C29.6393 5.15776 29.4459 5.04175 29.3244 5.01965Z" fill="black"/>
<path d="M0.414022 3.45312C-0.0312901 3.67187 -0.109415 4.40625 0.28121 4.77343C0.476522 4.96093 0.515585 4.96093 2.28902 5C4.01558 5.03906 4.11715 5.05468 4.49215 5.23437C4.99996 5.48437 5.4609 5.95312 5.67965 6.44531C5.78902 6.69531 6.55465 10.3672 7.81246 16.6875C8.88277 22.1094 9.76558 26.5625 9.76558 26.5937C9.76558 26.6172 9.24215 26.6406 8.59371 26.6406C6.88277 26.6406 6.34371 26.7969 5.68746 27.4766C5.22652 27.9453 5.03902 28.4453 5.03902 29.1797C5.03902 29.7031 5.07027 29.875 5.25777 30.25C5.49215 30.7344 5.90621 31.1484 6.42183 31.4219L6.75777 31.6016L21.4687 31.625L36.1796 31.6406L36.414 31.4141C36.789 31.0312 36.6796 30.3047 36.2109 30.0937C36.0546 30.0234 32.6171 30 21.6718 30C5.74996 30 6.98433 30.0391 6.74996 29.4766C6.60152 29.1406 6.7109 28.75 7.00777 28.5156C7.2109 28.3594 7.29683 28.3594 19.8984 28.3594C33.6171 28.3594 32.9296 28.3828 33.1875 27.9609C33.3046 27.7734 33.9062 24.8594 33.9062 24.4844C33.9062 24.1484 33.5859 23.7734 33.25 23.7031C32.9765 23.6562 32.6171 23.7891 32.4296 24.0156C32.375 24.0781 32.2187 24.6875 32.0781 25.3672L31.8281 26.6016L21.6718 26.625L11.5234 26.6406L10.0468 19.2422C9.23433 15.1641 8.55465 11.7891 8.53121 11.7344C8.50777 11.6641 9.11715 11.6406 11.4296 11.6406C13.4296 11.6406 14.4296 11.6094 14.5625 11.5547C15.0312 11.3359 15.1171 10.6016 14.7187 10.2266L14.5156 10.0391L11.3437 10L8.17183 9.96094L7.79683 8.08594C7.49215 6.54687 7.37496 6.10937 7.14058 5.63281C6.63277 4.60156 5.60933 3.77343 4.49215 3.47656C3.94527 3.33593 0.703085 3.3125 0.414022 3.45312Z" fill="black"/>
<path d="M12.2656 33.5156C10.9765 33.9922 10.1328 35.0781 10.0234 36.4141C9.93745 37.3828 10.3203 38.3672 11.0546 39.0547C12.7187 40.625 15.3281 40.1484 16.3359 38.0859C16.5859 37.5625 16.6015 37.5 16.6015 36.6797C16.6015 35.875 16.5859 35.7891 16.3515 35.2969C16.0078 34.5703 15.4999 34.0469 14.7812 33.6953C14.2499 33.4297 14.1328 33.3984 13.4453 33.3828C12.8437 33.3594 12.6093 33.3906 12.2656 33.5156ZM13.8593 35.0938C14.4921 35.2891 14.9999 36.0156 14.9999 36.7344C14.9999 37.1328 14.6406 37.7891 14.289 38.0234C13.5703 38.5 12.789 38.4219 12.1874 37.8125C11.3593 36.9922 11.5546 35.7188 12.5859 35.2031C13.039 34.9766 13.3749 34.9531 13.8593 35.0938Z" fill="black"/>
<path d="M27.2656 33.5156C25.9765 33.9922 25.1328 35.0781 25.0234 36.4141C24.9374 37.3828 25.3203 38.3672 26.0546 39.0547C27.7187 40.625 30.3281 40.1484 31.3359 38.0859C31.5859 37.5625 31.6015 37.5 31.6015 36.6797C31.6015 35.875 31.5859 35.7891 31.3515 35.2969C31.0078 34.5703 30.4999 34.0469 29.7812 33.6953C29.2499 33.4297 29.1328 33.3984 28.4453 33.3828C27.8437 33.3594 27.6093 33.3906 27.2656 33.5156ZM28.8593 35.0938C29.4921 35.2891 29.9999 36.0156 29.9999 36.7344C29.9999 37.1328 29.6406 37.7891 29.289 38.0234C28.5703 38.5 27.789 38.4219 27.1874 37.8125C26.3593 36.9922 26.5546 35.7188 27.5859 35.2031C28.039 34.9766 28.3749 34.9531 28.8593 35.0938Z" fill="black"/>
</g>
<defs>
<clipPath id="clip0_112_229">
<rect width="40" height="40" fill="white"/>
</clipPath>
</defs>
</svg>
