<svg width="40" height="40" viewBox="0 0 40 40" fill="none" xmlns="http://www.w3.org/2000/svg">
<path d="M15.0859 0.0859299C14.4844 0.203117 13.664 0.64843 13.2109 1.10155C12.4531 1.85937 12.1172 2.82812 12.1094 4.23437V4.84374H9.74998C7.08592 4.84374 6.49998 4.90624 5.79686 5.23437C5.16404 5.53124 4.40623 6.28124 4.11717 6.89843C3.46092 8.28905 3.74217 9.89843 4.82029 10.9687C5.19529 11.3437 6.07811 11.875 6.32029 11.875C6.38279 11.875 6.40623 15.1719 6.42186 23.9219L6.44529 35.9766L6.65623 36.6016C6.95311 37.4687 7.37498 38.1328 7.96873 38.7031C8.58592 39.2812 9.23436 39.6406 10.0469 39.8437C10.6328 39.9922 10.9453 40 20 40C29.0547 40 29.3672 39.9922 29.9531 39.8437C31.8515 39.3594 33.2187 37.7812 33.5156 35.7266C33.5625 35.3984 33.5937 30.7344 33.5937 23.5391V11.8906L33.8906 11.7891C35.0078 11.4297 35.9765 10.2344 36.1797 8.98437C36.3906 7.66405 35.7344 6.18749 34.6015 5.46093C33.75 4.92187 33.6172 4.89843 30.6172 4.85937L27.914 4.82812L27.8672 3.91405C27.8125 2.90624 27.6484 2.3203 27.2656 1.71093C26.7422 0.89843 25.7969 0.257805 24.8515 0.0781174C24.3359 -0.0156364 15.5859 -0.0156364 15.0859 0.0859299ZM24.9609 2.04687C25.664 2.42968 25.9453 2.96874 26 4.03905L26.039 4.84374H20H13.9687L13.9922 3.99999C14.0234 3.2578 14.0469 3.12499 14.2422 2.79687C14.3594 2.59374 14.5625 2.35155 14.6953 2.2578C15.2344 1.87499 15.2109 1.87499 20.1172 1.89843C24.2422 1.91405 24.75 1.92968 24.9609 2.04687ZM33.3984 6.92968C33.7969 7.14062 34.0234 7.3828 34.1875 7.77343C34.4844 8.49218 34.2344 9.35937 33.6015 9.80468L33.2656 10.0391L20.1719 10.0625C11.0234 10.0781 6.98436 10.0625 6.78123 9.99999C5.99998 9.77343 5.49998 8.87499 5.70311 8.05468C5.85154 7.43749 6.34373 6.95312 6.99217 6.78905C7.12498 6.7578 13.0469 6.74218 20.1562 6.74218L33.0859 6.7578L33.3984 6.92968ZM31.7031 23.4766C31.7187 31.3125 31.6953 35.1328 31.6406 35.5078C31.4765 36.5859 30.914 37.3828 30.0156 37.8281L29.4922 38.0859L20.2031 38.1094C10.125 38.1328 10.3906 38.1406 9.71092 37.7109C9.07029 37.3047 8.53904 36.5156 8.36717 35.7187C8.30467 35.4219 8.28123 31.9766 8.28123 23.625V11.9531L19.9844 11.9687L31.6797 11.9922L31.7031 23.4766Z" fill="black"/>
<path d="M13.8438 14.7578C13.7188 14.8906 13.5938 15.1016 13.5625 15.2422C13.5391 15.375 13.5156 19.4766 13.5156 24.3516C13.5156 33.7969 13.5078 33.5078 13.8828 33.8516C14.125 34.0625 14.5391 34.1016 14.8672 33.9453C15.4219 33.6797 15.3906 34.3125 15.3906 24.2578C15.3906 14.4531 15.4141 14.9531 14.9688 14.6563C14.8594 14.5859 14.6172 14.5313 14.4219 14.5313C14.1406 14.5313 14.0313 14.5781 13.8438 14.7578Z" fill="black"/>
<path d="M19.4375 14.7109C19.3281 14.8047 19.1953 14.9609 19.1484 15.0547C19.0859 15.1719 19.0625 17.875 19.0625 24.2578C19.0625 34.3125 19.0312 33.6797 19.5859 33.9453C19.914 34.1016 20.3281 34.0625 20.5703 33.8516C20.9453 33.5078 20.9375 33.7969 20.9375 24.3516C20.9375 19.4766 20.914 15.375 20.8906 15.2422C20.8593 15.1016 20.7343 14.8906 20.6093 14.7578C20.3125 14.4609 19.7578 14.4375 19.4375 14.7109Z" fill="black"/>
<path d="M24.875 14.7969L24.6094 15.0625V24.2109C24.6094 32.0781 24.625 33.3984 24.7266 33.5859C24.8437 33.8281 25.2656 34.0625 25.5703 34.0625C25.8594 34.0625 26.2734 33.7422 26.3828 33.4375C26.5078 33.0781 26.5234 15.6562 26.4062 15.2188C26.2891 14.7969 25.9297 14.5312 25.4922 14.5312C25.1953 14.5312 25.1016 14.5703 24.875 14.7969Z" fill="black"/>
</svg>
