<svg width="40" height="40" viewBox="0 0 40 40" fill="none" xmlns="http://www.w3.org/2000/svg">
<g clip-path="url(#clip0_106_270)">
<path d="M19.1016 0.0546837C18.3594 0.171871 17.4454 0.414059 17.1251 0.578121C16.6954 0.796871 16.0938 1.40625 15.9454 1.77343L15.8438 2.03125H12.7344C9.2188 2.03125 9.06255 2.05468 8.1563 2.64843C7.58599 3.02343 7.30474 3.32031 6.83599 4.05468C5.80474 5.66406 4.98443 8.02344 4.79693 9.90625C4.74224 10.4609 4.73443 10.4766 4.42193 10.6953C3.64849 11.2266 3.13287 12.0234 2.96099 12.9375C2.88287 13.3594 2.93755 14.3125 3.0938 15.0937C3.13287 15.3047 3.12505 15.3125 2.83599 15.3125C2.06255 15.3125 1.26568 15.7812 0.914116 16.4375C0.742241 16.75 0.742241 16.8203 0.718804 20.1875C0.695366 23.9609 0.703179 24.0156 1.17193 24.6094C1.30474 24.7734 1.5938 25 1.81255 25.1094C2.20318 25.3047 2.26568 25.3125 3.63287 25.3125C4.95318 25.3125 5.04693 25.3203 5.14068 25.4687C5.21099 25.5937 5.21099 25.7109 5.10943 26.0703C5.04693 26.3203 4.9688 26.8437 4.94537 27.2422C4.78912 29.7344 6.0313 31.8828 8.46099 33.3203C10.461 34.5 12.3438 36.1797 13.6797 37.9687C14.6485 39.2578 15.0469 39.5859 16.0079 39.875C16.6172 40.0547 23.3204 40.0625 24.0079 39.8828C24.9844 39.6328 25.3985 39.2969 26.3829 37.9922C27.8672 36.0078 29.461 34.5937 31.7188 33.2422C33.4063 32.2422 34.4532 30.9297 34.9376 29.25C35.1641 28.4453 35.1876 26.8672 34.9766 26.1094C34.7579 25.3125 34.7657 25.3125 36.3751 25.3125C37.8204 25.3125 38.1407 25.25 38.6251 24.8828C38.7657 24.7734 38.9844 24.5 39.1094 24.2812L39.336 23.8672V20.3125C39.336 16.7891 39.336 16.7578 39.1641 16.4375C38.8126 15.7812 38.0157 15.3125 37.2501 15.3125C36.9532 15.3125 36.9454 15.3125 36.9922 15.0547C37.2344 13.5937 37.1954 12.8359 36.8204 12.0547C36.5938 11.5703 35.9844 10.875 35.6094 10.6719C35.3438 10.5312 35.3438 10.5234 35.2501 9.73437C35.0547 8.125 34.5547 6.5 33.7813 5C32.9844 3.46875 32.2422 2.67187 31.1876 2.25C30.7501 2.07031 30.6797 2.07031 27.4922 2.04687L24.2422 2.02343L24.1172 1.75C23.9219 1.34375 23.3751 0.789059 22.9454 0.570309C22.3672 0.281246 21.336 0.0781212 20.2735 0.0390587C19.7579 0.0234337 19.2344 0.0312462 19.1016 0.0546837ZM21.6719 1.54687C22.3126 1.71093 22.5782 1.85937 22.8438 2.21093C23.0235 2.45312 24.3907 7.44531 24.2813 7.48437C24.2501 7.5 23.6251 7.47656 22.8985 7.42968C21.2032 7.32031 18.8829 7.32031 17.1407 7.42968C16.3907 7.47656 15.7579 7.50781 15.7422 7.49218C15.7188 7.46093 16.6563 3.92187 16.9844 2.79687C17.1251 2.29687 17.461 1.86718 17.7969 1.72656C17.9219 1.67187 18.336 1.5625 18.7188 1.48437C19.5704 1.29687 20.7501 1.32031 21.6719 1.54687ZM14.8751 5.48437C14.5547 6.65625 14.2969 7.64062 14.2969 7.66406C14.2969 7.69531 13.9688 7.75781 13.5782 7.80468C11.711 8.03906 9.1563 8.67969 7.2813 9.38281C6.70318 9.60156 6.21099 9.75781 6.18755 9.73437C6.16412 9.71094 6.21099 9.38281 6.2813 9.00781C6.67193 6.98438 7.85943 4.51562 8.74224 3.85937C9.38287 3.39062 9.50787 3.36718 12.6251 3.36718L15.4454 3.35937L14.8751 5.48437ZM30.6407 3.5C31.4922 3.8125 31.9844 4.375 32.7344 5.89843C32.9454 6.32812 33.2422 7.04687 33.3907 7.5C33.6719 8.35156 33.961 9.65625 33.8829 9.73437C33.8594 9.75781 33.4219 9.61719 32.9063 9.42187C31.0704 8.72656 28.4219 8.05468 26.5079 7.80468C26.1094 7.75 25.7813 7.6875 25.7813 7.66406C25.7813 7.64062 25.5235 6.65625 25.2032 5.48437L24.6329 3.35937H27.4532C29.9141 3.36718 30.3204 3.38281 30.6407 3.5ZM22.6172 8.75C26.7657 9.01562 29.6094 9.58594 32.5547 10.7344C33.8672 11.2422 34.8204 11.7187 35.1797 12.0312C35.5313 12.3359 35.7813 12.8828 35.8047 13.3594C35.8126 13.5703 35.8047 13.7578 35.7735 13.7812C35.7501 13.8047 35.1876 13.5391 34.5079 13.1953C33.1251 12.4922 31.5938 11.8516 30.2969 11.4531C23.961 9.47656 15.5079 9.53906 9.33599 11.6094C8.01568 12.0469 6.73443 12.5937 5.39849 13.2891C4.24224 13.8828 4.17974 13.8906 4.25787 13.2969C4.4063 12.2656 4.85162 11.8516 6.68755 11.0703C9.86724 9.71875 12.9454 9.03906 17.2266 8.75781C18.7032 8.66406 21.1797 8.65625 22.6172 8.75ZM22.2266 11.4062C26.2501 11.6719 29.3751 12.3594 32.3126 13.6328C33.3672 14.0859 35.1094 15 35.4219 15.2656L35.6094 15.4297L35.1485 19.0547C34.8985 21.0547 34.6563 22.8672 34.6094 23.1016C34.1485 25.2891 31.3751 27.1562 28.3204 27.3203C25.1172 27.4922 22.1094 26.0937 21.1094 23.9687C20.8594 23.4453 20.7032 22.8203 20.7032 22.3828C20.7032 21.9922 20.4141 21.6875 20.0469 21.6875C19.6172 21.6875 19.4376 21.9141 19.3594 22.5547C19.2657 23.3594 19.0704 23.8828 18.6329 24.5312C16.8204 27.2031 11.9922 28.1641 8.62505 26.5234C7.31255 25.8906 6.28912 24.9844 5.81255 24.0547C5.49224 23.4219 5.39849 22.875 4.92193 19.1016C4.57037 16.2734 4.48443 15.4062 4.55474 15.3359C4.77349 15.1328 6.53912 14.1875 7.5938 13.7187C10.1172 12.5937 12.6329 11.9453 15.9766 11.5625C17.961 11.3359 20.2422 11.2812 22.2266 11.4062ZM3.2813 16.6719C3.2813 16.6875 3.46099 18.1016 3.67193 19.8125C4.0313 22.6797 4.12505 23.3203 4.26568 23.8047C4.31255 23.9844 4.31255 23.9844 3.39068 23.9844C2.42193 23.9766 2.29693 23.9453 2.12505 23.6172C2.05474 23.5 2.0313 22.5391 2.0313 20.2969C2.0313 16.8906 2.0313 16.8828 2.45318 16.7187C2.61724 16.6484 3.2813 16.6094 3.2813 16.6719ZM37.836 16.8672C38.0079 17.0312 38.0079 17.0625 38.0313 20.1797C38.0391 21.9062 38.0313 23.3984 38.0079 23.4922C37.9844 23.5859 37.8907 23.7422 37.7969 23.8281C37.6485 23.9687 37.5235 23.9844 36.7032 23.9844C36.1954 23.9844 35.7813 23.9687 35.7813 23.9531C35.7813 23.9297 35.836 23.6953 35.8907 23.4219C35.9532 23.1484 36.1641 21.625 36.3672 20.0391C36.5626 18.4453 36.7422 17.0312 36.7657 16.8828L36.8047 16.625L37.2344 16.6562C37.5391 16.6797 37.7188 16.7422 37.836 16.8672ZM20.6172 25.6406C21.6407 26.9687 23.4922 28.0156 25.5704 28.4453C28.2501 28.9922 31.0001 28.5 33.1641 27.0859L33.711 26.7266L33.7735 27.0937C33.8516 27.5547 33.7813 28.4219 33.6251 28.9844C33.2579 30.2734 32.4454 31.2187 30.8126 32.2266C30.2579 32.5703 29.4532 33.1094 29.0235 33.4297C27.961 34.2266 26.1251 36.0781 25.2891 37.2031C24.9219 37.7031 24.5079 38.1875 24.3751 38.2812C23.8516 38.6562 23.6329 38.6719 19.9922 38.6719C15.6016 38.6719 15.9376 38.7734 14.6172 37.0078C13.1641 35.0703 11.5313 33.6484 8.69537 31.8594C7.24224 30.9375 6.4063 29.6094 6.28912 27.9922C6.25787 27.6562 6.26568 27.2344 6.30474 27.0469L6.36724 26.7187L6.74224 26.9844C7.63287 27.6172 9.03912 28.2109 10.3126 28.4844C11.3047 28.7031 13.4297 28.6797 14.5079 28.4531C16.8907 27.9375 18.9454 26.6484 19.8751 25.0859C20.0157 24.8437 20.0391 24.8359 20.1094 24.9609C20.1563 25.0312 20.3829 25.3437 20.6172 25.6406Z" fill="black"/>
<path d="M10.5703 17.2109C6.89062 20.8828 6.71875 21.0703 6.71875 21.3437C6.71875 21.7265 7.10156 22.0703 7.45312 22C7.64062 21.9609 8.55469 21.0937 11.4297 18.2187C13.4844 16.1719 15.2188 14.3984 15.2812 14.2812C15.5 13.8594 15.1562 13.3594 14.6562 13.3594C14.4453 13.3594 13.9922 13.7812 10.5703 17.2109Z" fill="black"/>
<path d="M7.91406 15.8828C6.85938 16.9297 6.71875 17.1094 6.71875 17.3281C6.71875 17.6875 7.01562 17.9688 7.39844 17.9688C7.67188 17.9688 7.76562 17.8906 8.84375 16.8125C9.92188 15.7344 10 15.6406 10 15.3672C10 14.9844 9.71875 14.6875 9.35938 14.6875C9.14062 14.6875 8.96094 14.8281 7.91406 15.8828Z" fill="black"/>
<path d="M19.5783 27.5391C19.297 27.7969 19.3048 28.1484 19.6017 28.4453C19.8986 28.7422 20.1798 28.7422 20.4767 28.4453C20.7189 28.2031 20.758 27.9844 20.6095 27.7109C20.3908 27.2969 19.922 27.2188 19.5783 27.5391Z" fill="black"/>
<path d="M12.9298 30.1953C12.5236 30.5938 12.8048 31.3281 13.3517 31.3281C13.7111 31.3281 14.0157 31.0234 14.0157 30.6641C14.0157 30.0859 13.3282 29.7891 12.9298 30.1953Z" fill="black"/>
<path d="M15.7265 30.0781C15.1406 30.3125 15.375 31.3281 16.0156 31.3281C16.3281 31.3281 16.7187 30.9609 16.7187 30.6641C16.7187 30.3984 16.3281 30 16.0781 30.0078C15.9765 30.0078 15.8203 30.0391 15.7265 30.0781Z" fill="black"/>
<path d="M18.3986 30.0938C18.0782 30.2734 17.9611 30.625 18.0939 30.9766C18.1564 31.125 18.5236 31.3281 18.7501 31.3281C18.9923 31.3281 19.3751 30.9141 19.3751 30.6641C19.3751 30.4062 18.9845 30 18.7345 30C18.6329 30 18.4845 30.0469 18.3986 30.0938Z" fill="black"/>
<path d="M20.9296 30.2266C20.5859 30.5781 20.6718 31.0703 21.1015 31.25C21.664 31.4844 22.1875 30.9609 21.9531 30.3984C21.7734 29.9687 21.2812 29.8828 20.9296 30.2266Z" fill="black"/>
<path d="M23.5859 30.2266C23.4531 30.3672 23.3594 30.5391 23.3594 30.6641C23.3594 30.9609 23.75 31.3281 24.0625 31.3281C24.7031 31.3281 24.9375 30.4062 24.3672 30.1172C24.0391 29.9453 23.8438 29.9766 23.5859 30.2266Z" fill="black"/>
<path d="M26.2892 30.1797C25.8283 30.5703 26.1173 31.3281 26.7267 31.3281C27.0548 31.3281 27.3439 31.0234 27.3439 30.6797C27.3439 30.3281 27.1408 30.0859 26.7892 30.0312C26.5705 29.9922 26.4689 30.0234 26.2892 30.1797Z" fill="black"/>
<path d="M15.7423 32.75C15.3361 32.9687 15.2579 33.4687 15.5861 33.7891C15.8517 34.0625 16.1954 34.0469 16.5001 33.75C16.6954 33.5469 16.7267 33.4687 16.6876 33.2578C16.6017 32.7891 16.1251 32.5391 15.7423 32.75Z" fill="black"/>
<path d="M18.3986 32.75C17.8048 33.0937 18.0158 33.9922 18.6876 33.9844C18.9767 33.9766 19.1486 33.875 19.2814 33.6172C19.4298 33.3437 19.3908 33.125 19.1486 32.8828C18.9064 32.6484 18.6564 32.6016 18.3986 32.75Z" fill="black"/>
<path d="M20.9297 32.8828C20.8047 33.0078 20.7031 33.1875 20.7031 33.2812C20.7031 33.8906 21.4141 34.2109 21.8359 33.7891C22.1094 33.5234 22.0938 33.1797 21.8047 32.8828C21.5078 32.5859 21.2266 32.5859 20.9297 32.8828Z" fill="black"/>
<path d="M23.586 32.8828C23.1328 33.3359 23.4453 33.9844 24.1094 33.9844C24.5469 33.9844 24.8594 33.3125 24.586 32.9609C24.3125 32.6016 23.8985 32.5703 23.586 32.8828Z" fill="black"/>
<path d="M18.4688 35.3906C18.3751 35.4297 18.2422 35.5391 18.1719 35.6406C17.7891 36.1875 18.3751 36.8437 19.0235 36.5937C19.1719 36.5312 19.3751 36.1641 19.3751 35.9453C19.3751 35.5781 18.8282 35.2422 18.4688 35.3906Z" fill="black"/>
<path d="M21.1249 35.3906C20.6953 35.5625 20.5781 36.1328 20.8984 36.4453C21.2968 36.8516 22.0312 36.5703 22.0312 36.0234C22.0312 35.5781 21.5156 35.2266 21.1249 35.3906Z" fill="black"/>
</g>
<defs>
<clipPath id="clip0_106_270">
<rect width="40" height="40" fill="white"/>
</clipPath>
</defs>
</svg>
