<svg width="40" height="40" viewBox="0 0 40 40" fill="none" xmlns="http://www.w3.org/2000/svg">
<path d="M10.3672 0.078125C9.67969 0.25 8.98438 0.796875 8.67188 1.39844C8.47656 1.79688 8.35938 2.57031 8.44531 3.00781C8.64062 4.05469 9.4375 4.85156 10.5469 5.08594L10.9375 5.17188V8.05469V10.9375H10.3125H9.6875V13.1484V15.3594L9.16406 15.7422C8.39062 16.2969 6.99219 17.7344 6.39062 18.5938C4.73438 20.9375 3.90625 23.5547 3.90625 26.4688C3.90625 31.2422 6.32031 35.5156 10.4688 38.0625C11.75 38.8516 13.6641 39.5547 15.25 39.8203C16.3438 40 18.5 40 19.5938 39.8203C22.375 39.3516 24.9531 38.0234 26.9609 36.0234C29.1016 33.875 30.3594 31.375 30.8281 28.3203C31.0078 27.1484 30.9453 25 30.7109 23.8438C30.3906 22.3125 29.8828 20.9688 29.1484 19.7266L28.75 19.0547L29.0312 18.6875C29.1875 18.4844 29.4766 17.9844 29.6797 17.5703L30.0469 16.8281L30.2812 16.9219C30.6094 17.0547 30.9922 17.5078 31.0859 17.8672C31.125 18.0312 31.5312 22.1719 31.9922 27.0703C32.4453 31.9688 32.8594 36.1172 32.9062 36.2891C33.0625 36.8984 33.7891 37.4219 34.5 37.4219C34.9297 37.4219 35.5547 37.0391 35.8203 36.6094C36.0312 36.2656 36.0469 36.1641 36.0391 35.6328C36.0312 35.3047 35.7578 30.5938 35.4297 25.1641L34.8281 15.2812L30.8438 8.30469L26.8516 1.32812H20.0625H13.2734L12.8828 0.898438C12.2188 0.179688 11.25 -0.140625 10.3672 0.078125ZM11.6484 1.5C11.8125 1.60938 12 1.85938 12.1406 2.125L12.3594 2.57812H19.2188H26.0703L29.8281 9.15625L33.5781 15.7422L34.1797 25.8047C34.8281 36.625 34.8203 36.1328 34.3828 36.0781C34.2188 36.0625 34.1641 36 34.1172 35.7812C34.0859 35.6328 33.6875 31.5 33.2344 26.6094C32.5703 19.4141 32.3828 17.625 32.2578 17.2969C31.9688 16.5312 31.4531 16.0078 30.6641 15.6953L30.3516 15.5625L30.3047 14.6797C30.25 13.6875 30.1719 13.2969 29.8828 12.5312C29.1797 10.6641 27.4688 9.13281 25.5469 8.63281C25.2656 8.5625 25 8.49219 24.9453 8.47656C24.8828 8.45312 24.8984 8.3125 25.0078 7.96875C25.4141 6.67188 24.8906 5.28125 23.7031 4.49219C22.8359 3.91406 23.2812 3.95312 16.6797 3.90625C11.0547 3.86719 10.7266 3.85938 10.4453 3.71875C9.96094 3.47656 9.72656 3.10156 9.72656 2.57031C9.72656 2.0625 9.86719 1.80469 10.3125 1.5C10.5 1.375 10.6797 1.32812 10.9766 1.32812C11.2656 1.32812 11.4609 1.375 11.6484 1.5ZM13.5156 8.04688V10.9375H12.8906H12.2656V8.04688V5.15625H12.8906H13.5156V8.04688ZM22.6562 5.35938C23.7109 5.85938 24.125 6.99219 23.6172 7.96875L23.3984 8.38281L22.6641 8.53125C21.2812 8.8125 20.2422 9.38281 19.2188 10.4219L18.7109 10.9375H16.7812H14.8438V8.04688V5.14844L18.5781 5.17188C22.1875 5.19531 22.3125 5.20312 22.6562 5.35938ZM24.9609 9.80469C25.2656 9.86719 25.8047 10.0625 26.1719 10.2422C26.7109 10.5078 26.9609 10.6953 27.5 11.2422C28.5469 12.2969 29.0078 13.3906 29 14.8438C29 16.3047 28.5469 17.3984 27.5 18.4375C26.9688 18.9766 26.7031 19.1719 26.1719 19.4297C24.6484 20.1719 23.0781 20.1719 21.5625 19.4297C20.5859 18.9531 19.7578 18.1094 19.2734 17.1016C18.8594 16.25 18.7344 15.7109 18.7344 14.8125C18.7422 13.3828 19.2109 12.2734 20.2344 11.2422C20.7656 10.7109 21.0312 10.5078 21.5625 10.2422C22.6484 9.71094 23.7969 9.5625 24.9609 9.80469ZM17.8125 12.6484C17.6484 13.0781 17.4219 14.1797 17.4219 14.5781V14.8438H14.1797H10.9375V13.5547V12.2656H14.4531H17.9688L17.8125 12.6484ZM17.6953 16.6797C18.1484 18.1562 19.0703 19.3828 20.3672 20.2344C22.4297 21.5938 25.2109 21.6172 27.3047 20.2812C27.6406 20.0625 27.7734 20.0156 27.8516 20.0781C28.1797 20.3516 29.1406 22.7109 29.375 23.8281C29.4219 24.0625 29.4844 24.3203 29.5078 24.3906C29.5391 24.5156 29.4609 24.5312 28.6406 24.5312H27.7344V25.1562V25.7734L28.6953 25.7969L29.6484 25.8203V26.4453V27.0703H17.4219H5.19531V26.4453V25.8203L6.15625 25.7969L7.10938 25.7734V25.1562V24.5312H6.20312C5.38281 24.5312 5.30469 24.5156 5.34375 24.3906C5.35938 24.3203 5.39844 24.1328 5.42969 23.9844C5.5625 23.2578 6 21.9766 6.41406 21.125C7.32812 19.25 8.69531 17.6406 10.4219 16.4219L10.8906 16.0938L14.2031 16.1094L17.5234 16.1328L17.6953 16.6797ZM29.4531 28.5469C29.4531 28.6484 29.3672 29.0625 29.2656 29.4688C28.125 33.9766 24.5 37.4531 19.9219 38.4375C18.8984 38.6562 16.875 38.7344 15.8438 38.5938C11.5625 38.0078 7.91406 35.2656 6.21094 31.3438C5.76562 30.3125 5.25781 28.5234 5.375 28.3984C5.39844 28.375 10.8281 28.3594 17.4375 28.3594H29.4531V28.5469Z" fill="black"/>
<path d="M23.3203 11.0156C21.7657 11.2578 20.5235 12.3984 20.1172 13.9609C19.6172 15.875 20.8516 17.9766 22.8047 18.5469C23.0391 18.6172 23.5157 18.6719 23.8672 18.6719C24.9532 18.6719 25.8282 18.3047 26.6094 17.5234C28.1016 16.0391 28.0938 13.6562 26.586 12.1328C25.7188 11.2578 24.4766 10.8359 23.3203 11.0156ZM23.9063 13.5547V14.8438H22.6094H21.3047L21.3438 14.4688C21.4532 13.3672 22.5938 12.2969 23.6953 12.2734L23.9063 12.2656V13.5547ZM25.5157 12.875C26.125 13.4141 26.4141 14.0469 26.4219 14.8438C26.4219 15.3516 26.2266 16.0156 26.0782 16.0156C26.0391 16.0156 25.8203 15.8672 25.586 15.6953L25.1563 15.375V14.0156C25.1563 13.2656 25.1797 12.6562 25.2188 12.6562C25.25 12.6641 25.3828 12.7578 25.5157 12.875ZM24.5625 16.5312C24.8907 16.7656 25.1563 16.9922 25.1563 17.0312C25.1563 17.1875 24.3985 17.3828 23.8282 17.3828C23.1094 17.375 22.6719 17.1953 22.1094 16.6719C21.5157 16.1094 21.5391 16.0938 22.8438 16.0938H23.961L24.5625 16.5312Z" fill="black"/>
<path d="M8.35938 25.1562V25.7812H17.4219H26.4844V25.1562V24.5312H17.4219H8.35938V25.1562Z" fill="black"/>
</svg>
