<svg width="40" height="40" viewBox="0 0 40 40" fill="none" xmlns="http://www.w3.org/2000/svg">
<g clip-path="url(#clip0_107_288)">
<path d="M0 16.1797C0 27.3125 0.0234375 32.5313 0.0859375 32.9141C0.570312 36.1563 2.85156 38.7734 5.97656 39.6719C10.7109 41.0391 15.5859 37.8594 16.3203 32.9141C16.3828 32.5313 16.4062 27.6484 16.4062 17.3516V2.34375H17.6172H18.8281V1.17188V3.8147e-06H9.41406H0V16.1797ZM14.0625 3.59375V4.84375H8.20312H2.34375V3.59375V2.34375H8.20312H14.0625V3.59375ZM14.0391 20.0156C14.0156 34 14.0469 32.9766 13.5938 34.0625C12.8828 35.7344 11.3203 37.0547 9.53125 37.5078C8.97656 37.6484 7.42969 37.6484 6.875 37.5078C5.08594 37.0547 3.52344 35.7344 2.8125 34.0625C2.35938 32.9766 2.39062 34 2.36719 20.0156L2.34375 7.1875H8.20312H14.0625L14.0391 20.0156Z" fill="black"/>
<path d="M7.50786 9.61719C6.91411 9.73438 6.19536 10.125 5.73442 10.5781C4.54692 11.7656 4.37504 13.6016 5.32036 15.0312L5.56254 15.3906L5.32036 15.75C4.88286 16.4062 4.74223 16.9062 4.74223 17.7344C4.74223 18.5625 4.88286 19.0625 5.32036 19.7188L5.56254 20.0781L5.32036 20.4375C4.88286 21.0938 4.74223 21.5938 4.74223 22.4219C4.74223 23.25 4.88286 23.75 5.32036 24.4062L5.56254 24.7656L5.32036 25.125C4.88286 25.7812 4.74223 26.2812 4.74223 27.1094C4.74223 27.9375 4.88286 28.4375 5.32036 29.0938L5.56254 29.4531L5.32036 29.8125C3.88286 31.9844 5.12504 34.8281 7.68754 35.25C8.06254 35.3125 8.34379 35.3125 8.71879 35.25C11.2813 34.8281 12.5235 31.9844 11.086 29.8125L10.8438 29.4531L11.086 29.0938C11.5235 28.4375 11.6641 27.9375 11.6641 27.1094C11.6641 26.2812 11.5235 25.7812 11.086 25.125L10.8438 24.7656L11.086 24.4062C11.5235 23.75 11.6641 23.25 11.6641 22.4219C11.6641 21.5938 11.5235 21.0938 11.086 20.4375L10.8438 20.0781L11.086 19.7188C11.5235 19.0625 11.6641 18.5625 11.6641 17.7344C11.6641 16.9062 11.5235 16.4062 11.086 15.75L10.8438 15.3906L11.086 15.0312C12.8204 12.4141 10.5704 9.01562 7.50786 9.61719ZM8.75004 12.0312C9.10161 12.2109 9.37504 12.6562 9.37504 13.0469C9.37504 13.4375 9.10161 13.8828 8.75004 14.0625C8.58598 14.1484 8.33598 14.2188 8.20317 14.2188C7.60942 14.2188 7.03129 13.6406 7.03129 13.0469C7.03129 12.6719 7.30473 12.2109 7.64067 12.0391C8.01567 11.8359 8.36723 11.8359 8.75004 12.0312ZM8.75004 16.7188C9.10161 16.8984 9.37504 17.3438 9.37504 17.7344C9.37504 17.8672 9.30473 18.1172 9.21879 18.2812C9.03911 18.6328 8.59379 18.9062 8.20317 18.9062C7.60942 18.9062 7.03129 18.3281 7.03129 17.7344C7.03129 17.3594 7.30473 16.8984 7.64067 16.7266C8.01567 16.5234 8.36723 16.5234 8.75004 16.7188ZM8.75004 21.4062C9.10161 21.5859 9.37504 22.0312 9.37504 22.4219C9.37504 23.0156 8.79692 23.5938 8.20317 23.5938C7.60942 23.5938 7.03129 23.0156 7.03129 22.4219C7.03129 22.0469 7.30473 21.5859 7.64067 21.4141C8.01567 21.2109 8.36723 21.2109 8.75004 21.4062ZM8.75004 26.0938C9.10161 26.2734 9.37504 26.7188 9.37504 27.1094C9.37504 27.7031 8.79692 28.2812 8.20317 28.2812C7.60942 28.2812 7.03129 27.7031 7.03129 27.1094C7.03129 26.7344 7.30473 26.2734 7.64067 26.1016C8.01567 25.8984 8.36723 25.8984 8.75004 26.0938ZM8.75004 30.7812C9.10161 30.9609 9.37504 31.4062 9.37504 31.7969C9.37504 31.9297 9.30473 32.1797 9.21879 32.3438C9.03911 32.6953 8.59379 32.9688 8.20317 32.9688C7.60942 32.9688 7.03129 32.3906 7.03129 31.7969C7.03129 31.4219 7.30473 30.9609 7.64067 30.7891C8.01567 30.5859 8.36723 30.5859 8.75004 30.7812Z" fill="black"/>
<path d="M21.1719 16.1797C21.1719 27.3125 21.1953 32.5313 21.2578 32.9141C21.7422 36.1563 24.0234 38.7734 27.1484 39.6719C31.8828 41.0391 36.7578 37.8594 37.4922 32.9141C37.5547 32.5313 37.5781 27.6484 37.5781 17.3516V2.34375H38.7891H40V1.17188V3.8147e-06H30.5859H21.1719V16.1797ZM35.2344 3.59375V4.84375H29.375H23.5156V3.59375V2.34375H29.375H35.2344V3.59375ZM35.2109 20.0156C35.1875 34 35.2188 32.9766 34.7656 34.0625C34.0547 35.7344 32.4922 37.0547 30.7031 37.5078C30.1484 37.6484 28.6016 37.6484 28.0469 37.5078C26.2578 37.0547 24.6953 35.7344 23.9844 34.0625C23.5312 32.9766 23.5625 34 23.5391 20.0156L23.5156 7.1875H29.375H35.2344L35.2109 20.0156Z" fill="black"/>
<path d="M28.6797 9.61719C28.086 9.73438 27.3672 10.125 26.9063 10.5781C25.7188 11.7656 25.5469 13.6016 26.4922 15.0312L26.7344 15.3906L26.4922 15.75C26.0547 16.4062 25.9141 16.9062 25.9141 17.7344C25.9141 18.5625 26.0547 19.0625 26.4922 19.7188L26.7344 20.0781L26.4922 20.4375C26.0547 21.0938 25.9141 21.5938 25.9141 22.4219C25.9141 23.25 26.0547 23.75 26.4922 24.4062L26.7344 24.7656L26.4922 25.125C26.0547 25.7812 25.9141 26.2812 25.9141 27.1094C25.9141 27.9375 26.0547 28.4375 26.4922 29.0938L26.7344 29.4531L26.4922 29.8125C25.0547 31.9844 26.2969 34.8281 28.8594 35.25C29.2344 35.3125 29.5157 35.3125 29.8907 35.25C32.4532 34.8281 33.6954 31.9844 32.2579 29.8125L32.0157 29.4531L32.2579 29.0938C32.6954 28.4375 32.836 27.9375 32.836 27.1094C32.836 26.2812 32.6954 25.7812 32.2579 25.125L32.0157 24.7656L32.2579 24.4062C32.6954 23.75 32.836 23.25 32.836 22.4219C32.836 21.5938 32.6954 21.0938 32.2579 20.4375L32.0157 20.0781L32.2579 19.7188C32.6954 19.0625 32.836 18.5625 32.836 17.7344C32.836 16.9062 32.6954 16.4062 32.2579 15.75L32.0157 15.3906L32.2579 15.0312C33.9922 12.4141 31.7422 9.01562 28.6797 9.61719ZM29.9219 12.0312C30.2735 12.2109 30.5469 12.6562 30.5469 13.0469C30.5469 13.4375 30.2735 13.8828 29.9219 14.0625C29.7579 14.1484 29.5079 14.2188 29.375 14.2188C28.9844 14.2188 28.5391 13.9453 28.3594 13.5938C28.1641 13.2031 28.1641 12.8906 28.3594 12.5C28.6485 11.9297 29.3282 11.7266 29.9219 12.0312ZM29.9219 16.7188C30.2735 16.8984 30.5469 17.3438 30.5469 17.7344C30.5469 17.8672 30.4766 18.1172 30.3907 18.2812C30.211 18.6328 29.7657 18.9062 29.375 18.9062C28.9844 18.9062 28.5391 18.6328 28.3594 18.2812C28.1641 17.8906 28.1641 17.5781 28.3594 17.1875C28.6485 16.6172 29.3282 16.4141 29.9219 16.7188ZM29.9219 21.4062C30.2735 21.5859 30.5469 22.0312 30.5469 22.4219C30.5469 23.0156 29.9688 23.5938 29.375 23.5938C28.9844 23.5938 28.5391 23.3203 28.3594 22.9688C28.1641 22.5781 28.1641 22.2656 28.3594 21.875C28.6485 21.3047 29.3282 21.1016 29.9219 21.4062ZM29.9219 26.0938C30.2735 26.2734 30.5469 26.7188 30.5469 27.1094C30.5469 27.7031 29.9688 28.2812 29.375 28.2812C28.9844 28.2812 28.5391 28.0078 28.3594 27.6562C28.1641 27.2656 28.1641 26.9531 28.3594 26.5625C28.6485 25.9922 29.3282 25.7891 29.9219 26.0938ZM29.9219 30.7812C30.2735 30.9609 30.5469 31.4062 30.5469 31.7969C30.5469 32.3906 29.9688 32.9688 29.375 32.9688C28.7813 32.9688 28.2032 32.3906 28.2032 31.7969C28.2032 31.4219 28.4766 30.9609 28.8125 30.7891C29.1875 30.5859 29.5391 30.5859 29.9219 30.7812Z" fill="black"/>
</g>
<defs>
<clipPath id="clip0_107_288">
<rect width="40" height="40" fill="white"/>
</clipPath>
</defs>
</svg>
