<svg width="40" height="40" viewBox="0 0 40 40" fill="none" xmlns="http://www.w3.org/2000/svg">
<g clip-path="url(#clip0_107_294)">
<path d="M9.32034 0.468754C4.93753 0.960941 1.49222 4.09375 0.625027 8.36719C0.406277 9.42188 0.38284 10.5781 0.562528 10.9141C0.890653 11.5078 1.74222 11.75 2.26565 11.3906C2.7344 11.0703 2.86721 10.7969 2.9219 9.98438C3.00003 8.95313 3.22659 8.05469 3.63284 7.20313C4.82034 4.6875 7.13284 3.13282 9.9844 2.92188C10.7969 2.86719 11.0703 2.73438 11.3907 2.26563C11.7422 1.74219 11.5078 0.882816 10.9219 0.578129C10.625 0.421879 10.0469 0.382816 9.32034 0.468754Z" fill="black"/>
<path d="M16.3517 4.79687C16.172 4.85156 15.8673 4.99218 15.6876 5.10156C15.5001 5.21093 13.0939 7.57812 10.211 10.5C4.46886 16.3047 4.67979 16.0547 4.62511 17.1875C4.60167 17.6406 4.63292 17.8672 4.75792 18.2109C4.91417 18.625 5.52355 19.2422 15.1173 28.8359C21.586 35.3047 25.4376 39.1016 25.672 39.2266C26.422 39.6562 27.3595 39.6797 28.1642 39.2812C28.3673 39.1797 30.3595 37.2422 33.7657 33.8437C38.4923 29.1172 39.0782 28.5078 39.2735 28.0859C39.6954 27.1641 39.5782 25.9375 39.0001 25.2187C38.8829 25.0781 34.3048 20.4922 28.8282 15.0312C17.6642 3.90625 18.6173 4.75781 17.3439 4.71093C16.9298 4.69531 16.5548 4.72656 16.3517 4.79687ZM27.2032 16.9297C33.7032 23.4297 37.0314 26.8125 37.0314 26.9141C37.0314 27.1328 27.1329 37.0312 26.9142 37.0312C26.7267 37.0312 7.10948 17.4531 7.10948 17.2656C7.10948 17.1094 17.1095 7.10937 17.2657 7.10937C17.3282 7.10937 21.8048 11.5312 27.2032 16.9297Z" fill="black"/>
<path d="M16.8047 10.1406C16.3438 10.3672 16.2109 10.6328 16.2109 11.3047C16.2109 11.875 16.2188 11.8906 16.5 12.1484C17.1953 12.7891 18.4766 12.4609 18.6406 11.6016C18.7031 11.2578 18.5859 10.7266 18.3828 10.4141C18.1172 10.0156 17.3203 9.875 16.8047 10.1406Z" fill="black"/>
<path d="M20.0391 13.2188C19.3203 13.4688 19.0469 14.3438 19.461 15.0781C19.6875 15.5 19.9844 15.6641 20.5078 15.6641C21.2578 15.6641 21.7188 15.2188 21.7188 14.5C21.7188 13.4844 20.9531 12.8984 20.0391 13.2188Z" fill="black"/>
<path d="M10.5391 16.3516C10.1953 16.5781 10 16.9766 10 17.4453C10 17.8594 10.125 18.1484 10.4141 18.4297C10.5703 18.5703 10.7266 18.6172 11.1094 18.6484C11.9453 18.7031 12.4219 18.3281 12.4766 17.5625C12.5234 17.0234 12.2734 16.5078 11.875 16.3125C11.4766 16.1094 10.8672 16.1328 10.5391 16.3516Z" fill="black"/>
<path d="M16.9532 16.2578C16.672 16.3672 16.336 16.7734 16.2813 17.0859C16.1641 17.7187 16.5001 18.4297 17.0001 18.5937C17.5157 18.7656 18.297 18.5391 18.5548 18.1562C18.9063 17.6172 18.711 16.6484 18.1876 16.3281C17.9063 16.1562 17.297 16.125 16.9532 16.2578Z" fill="black"/>
<path d="M22.961 16.4297C22.4298 16.7812 22.2735 17.4922 22.6016 18.125C22.8985 18.7266 23.586 18.9141 24.2657 18.5937C24.711 18.375 24.8751 18.1094 24.8829 17.5781C24.8829 17.0547 24.6798 16.6016 24.3438 16.3984C23.9923 16.1797 23.3048 16.1953 22.961 16.4297Z" fill="black"/>
<path d="M13.8672 19.3125C13.2656 19.5312 12.9375 20.1875 13.1172 20.8516C13.2734 21.4453 13.6406 21.7188 14.2734 21.7188C14.7656 21.7109 15.2656 21.4844 15.4219 21.1797C15.7187 20.6094 15.4687 19.625 14.9609 19.3828C14.6562 19.2344 14.1562 19.2031 13.8672 19.3125Z" fill="black"/>
<path d="M20.211 19.375C19.8204 19.4922 19.4844 19.8125 19.3907 20.1484C19.2891 20.4844 19.3125 20.7266 19.5157 21.1953C19.8282 21.9453 21.211 22.0156 21.6407 21.3125C21.8672 20.9375 21.8594 20.1953 21.6172 19.8359C21.336 19.4141 20.7188 19.2109 20.211 19.375Z" fill="black"/>
<path d="M26.25 19.4609C25.8047 19.6406 25.5313 20.0781 25.5235 20.6172C25.5157 21.0781 25.7813 21.5937 26.1016 21.7656C26.6641 22.0547 27.5704 21.7969 27.7813 21.2891C27.9454 20.8906 27.9219 20.25 27.7344 19.9375C27.461 19.5 26.7422 19.2656 26.25 19.4609Z" fill="black"/>
<path d="M23.3906 22.3906C22.7031 22.5625 22.375 23.1641 22.5703 23.8984C22.6172 24.0859 22.7265 24.3359 22.8125 24.4531C22.9531 24.6562 23.4062 24.8438 23.7422 24.8438C24.0234 24.8438 24.6719 24.5312 24.8047 24.3281C25 24.0234 25.039 23.4844 24.8906 23.1016C24.6406 22.4375 24.1328 22.2031 23.3906 22.3906Z" fill="black"/>
<path d="M16.836 22.5156C16.4297 22.75 16.2344 23.1328 16.2735 23.5937C16.3203 24.1484 16.5391 24.5312 16.9063 24.6953C17.336 24.8906 17.6172 24.8828 18.1094 24.6484C18.4219 24.5 18.5469 24.3906 18.6328 24.1875C18.8672 23.6328 18.7344 22.9609 18.336 22.5859C18.0313 22.3125 17.2578 22.2734 16.836 22.5156Z" fill="black"/>
<path d="M29.1719 22.5391C28.6719 22.7578 28.4532 23.625 28.7422 24.2578C28.9376 24.6953 29.1329 24.8437 29.586 24.8984C29.9063 24.9297 30.0626 24.9062 30.4141 24.7422C30.7891 24.5703 30.8594 24.5 30.9766 24.1875C31.211 23.5703 30.9766 22.8359 30.461 22.5781C30.1172 22.3984 29.5313 22.3828 29.1719 22.5391Z" fill="black"/>
<path d="M20.0781 25.5234C19.5078 25.8203 19.2891 26.5625 19.5703 27.2422C19.7578 27.6875 19.9531 27.8203 20.4609 27.8672C21.0391 27.9219 21.5703 27.7109 21.7578 27.3437C22.0469 26.7812 21.8203 25.8359 21.3203 25.5859C20.9531 25.3906 20.3984 25.3672 20.0781 25.5234Z" fill="black"/>
<path d="M26.1719 25.6484C25.6094 26.0234 25.4453 26.7656 25.7813 27.414C26.0547 27.9531 26.7266 28.125 27.3906 27.8203C27.9609 27.5625 28.1406 26.7812 27.7969 26.0937C27.4844 25.4922 26.7109 25.2734 26.1719 25.6484Z" fill="black"/>
<path d="M32.2735 25.7656C32.125 25.8359 31.9297 25.9922 31.8438 26.1172C31.5 26.5859 31.75 27.6641 32.2657 27.9297C32.6016 28.1016 33.336 28.0859 33.6563 27.8906C34.336 27.4766 34.2891 26.1406 33.586 25.7812C33.211 25.5859 32.625 25.5781 32.2735 25.7656Z" fill="black"/>
<path d="M23.4141 28.6328C22.5704 28.8437 22.2735 29.6016 22.711 30.4453C22.8907 30.7891 23.1719 30.9531 23.6719 31C24.1954 31.0469 24.6016 30.8359 24.8282 30.3906C25.0391 29.9687 25.0469 29.6016 24.8516 29.1641C24.6172 28.6641 24.0782 28.4609 23.4141 28.6328Z" fill="black"/>
<path d="M29.2031 28.7969C28.6406 29.0312 28.4297 29.8828 28.7735 30.5469C29 31 29.3516 31.1875 29.8828 31.1484C30.4453 31.1094 30.711 30.9531 30.9219 30.5469C31.1328 30.1328 31.125 29.7109 30.8828 29.2422C30.6172 28.7187 29.875 28.5234 29.2031 28.7969Z" fill="black"/>
<path d="M26.3281 31.7266C25.875 31.9063 25.6172 32.3281 25.6094 32.8828C25.6094 33.3984 25.8672 33.8828 26.2109 34.0313C26.8047 34.2734 27.6953 34.0469 27.9297 33.5859C28.1094 33.25 28.0781 32.5938 27.8672 32.2266C27.5859 31.7188 26.8984 31.5 26.3281 31.7266Z" fill="black"/>
<path d="M8.98433 4.92968C6.9609 5.45312 5.43746 6.98437 4.92183 9.01562C4.70308 9.87499 4.7109 10.6016 4.94527 10.9453C5.24215 11.3906 5.60152 11.5781 6.06246 11.5469C6.82027 11.4844 7.16402 11.0625 7.2734 10.0859C7.35933 9.30468 7.67965 8.66405 8.24215 8.1328C8.78121 7.62499 9.35152 7.35937 10.0937 7.27343C11.0625 7.16405 11.4843 6.81249 11.5468 6.06249C11.5781 5.60155 11.3906 5.24218 10.9453 4.9453C10.6015 4.71874 9.82808 4.71093 8.98433 4.92968Z" fill="black"/>
</g>
<defs>
<clipPath id="clip0_107_294">
<rect width="40" height="40" fill="white"/>
</clipPath>
</defs>
</svg>
