<svg width="40" height="40" viewBox="0 0 40 40" fill="none" xmlns="http://www.w3.org/2000/svg">
<path d="M14.2188 0.124996C12.9219 0.468746 11.9453 1.36718 11.4844 2.63281L11.3047 3.125H10.4141H9.51562L9.25 3.39062C8.99219 3.64843 8.98438 3.67968 8.98438 4.25V4.84375H7.6875H6.39062L6.125 5.10937L5.85938 5.375V7.1875V9L6.125 9.26562L6.39062 9.53125H7.6875H8.98438V10.5312V11.5234L7.53125 12.9687C6.73438 13.7656 6.03125 14.5078 5.96875 14.625C5.875 14.8047 5.85938 16.6094 5.85938 27.1562V39.4687L6.125 39.7344L6.39062 40H15.2734H24.1562L24.3828 39.7734L24.6094 39.5469V34.1484V28.7578L24.4297 28.5547C24.3203 28.4219 24.1484 28.3359 23.9375 28.3047C23.6562 28.2656 23.5781 28.2969 23.3516 28.5L23.0859 28.7344L23.0625 32.0234L23.0391 35.3125H15.2344H7.42188V25.5469V15.7812H15.2344H23.0391L23.0625 19.0703L23.0859 22.3594L23.3438 22.5859C23.4844 22.7109 23.6875 22.8125 23.7969 22.8125C24.0547 22.8125 24.4297 22.6172 24.5312 22.4297C24.5781 22.3281 24.6094 20.9297 24.6094 18.4687V14.6562L23.0469 13.0859L21.4844 11.5156V10.9141V10.3125H22.5234C23.5078 10.3125 23.5781 10.3203 24.0547 10.5469C24.7188 10.8594 25.5156 11.6562 25.8516 12.3516C26.0859 12.8359 26.2266 13.5312 27.7812 22.3516C28.7031 27.5703 29.4922 31.9375 29.5469 32.0547C29.5938 32.1719 29.7422 32.3281 29.8672 32.3984C30.0938 32.5078 30.25 32.5078 31.7969 32.3828C32.7188 32.3125 33.5625 32.2109 33.6641 32.1562C33.7656 32.1094 33.9219 31.9766 34.0156 31.8516L34.1719 31.6406L32.4688 19.8594C31.5078 13.2266 30.6953 7.86718 30.6094 7.57812C30.1016 5.91406 28.9297 4.53906 27.3828 3.78906C26.1172 3.17187 26.1641 3.17968 22.375 3.14843L19.0078 3.11718L18.9062 2.78906C18.5234 1.48437 17.2969 0.367184 15.9531 0.0859337C15.3984 -0.0312538 14.7422 -0.0156288 14.2188 0.124996ZM15.9375 1.71093C16.1562 1.79687 16.4609 1.96093 16.6172 2.07812C16.8672 2.26562 17.3438 2.91406 17.3438 3.0625C17.3438 3.09375 16.3594 3.125 15.1562 3.125C13.9531 3.125 12.9688 3.09375 12.9688 3.0625C12.9688 3.02343 13.0781 2.83593 13.2031 2.64062C13.8047 1.72656 14.9609 1.33593 15.9375 1.71093ZM11.4453 5.09375C11.8203 6.24218 12.7656 7.21875 13.8594 7.58593L14.2578 7.72656L14.2969 8.32031C14.3359 8.875 14.3516 8.9375 14.5938 9.14843C14.8672 9.39062 15.1094 9.42968 15.4297 9.28125C15.7266 9.14843 15.8594 8.82812 15.8594 8.26562V7.77343L16.375 7.59375C17.5781 7.17187 18.5234 6.23437 18.8828 5.10937L19.0156 4.6875H19.4688H19.9219V7.89062V11.0937H15.2344H10.5469V7.89062V4.6875H10.9297H11.3125L11.4453 5.09375ZM17.3438 4.75C17.3438 4.92187 16.8438 5.57031 16.5547 5.78125C15.4609 6.57031 13.9531 6.30468 13.2109 5.17968C13.0781 4.97656 12.9688 4.78906 12.9688 4.75C12.9688 4.71875 13.9531 4.6875 15.1562 4.6875C16.3594 4.6875 17.3438 4.71875 17.3438 4.75ZM25.5859 4.80468C27.2031 5.14843 28.6953 6.52343 29.1328 8.08593C29.2188 8.39843 32.4219 30.3203 32.4219 30.6172C32.4219 30.75 32.3438 30.7734 31.6797 30.8203C31.2656 30.8516 30.9141 30.8672 30.8984 30.8516C30.8828 30.8359 30.2031 27.0078 29.3828 22.3437C28.5625 17.6797 27.8125 13.5156 27.7266 13.0859C27.3438 11.25 26.2969 9.88281 24.6875 9.10937L24.0234 8.78906L22.7578 8.76562L21.4844 8.74218V6.71093V4.6875H23.2656C24.5234 4.6875 25.1953 4.72656 25.5859 4.80468ZM8.98438 7.1875V7.96875H8.20312H7.42188V7.1875V6.40625H8.20312H8.98438V7.1875ZM21.2109 13.4375L21.9922 14.2187H15.2734H8.55469L9.33594 13.4375L10.1172 12.6562H15.2734H20.4297L21.2109 13.4375ZM23.0469 37.6562V38.4375H15.2344H7.42188V37.6562V36.875H15.2344H23.0469V37.6562Z" fill="black"/>
<path d="M23.5 24.8906C23.2344 25.0313 23.125 25.2266 23.125 25.5469C23.125 25.875 23.2422 26.0703 23.5156 26.2109C23.8516 26.3828 24.1094 26.3516 24.3906 26.1016C24.6016 25.9141 24.6484 25.8203 24.6484 25.5469C24.6484 25.2734 24.6016 25.1797 24.3906 24.9922C24.1094 24.7422 23.8281 24.7109 23.5 24.8906Z" fill="black"/>
</svg>
