<svg width="40" height="40" viewBox="0 0 40 40" fill="none" xmlns="http://www.w3.org/2000/svg">
<g clip-path="url(#clip0_107_324)">
<path d="M14.0157 0.109381C12.7579 0.351568 11.9141 0.687506 10.9063 1.35938C9.2891 2.43751 8.08598 4.13282 7.6016 6.01563C7.05473 8.15626 7.42973 10.4375 8.64067 12.3594C8.74223 12.5234 8.82817 12.6641 8.82817 12.6719C8.82817 12.6875 8.4141 12.7031 7.90629 12.7031C5.7891 12.7266 3.96098 13.4844 2.45317 14.9609C1.32817 16.0703 0.656291 17.2266 0.257854 18.7344C0.0937915 19.3594 0.054729 19.6797 0.054729 20.5859C0.039104 22.1016 0.257854 23.0313 0.914104 24.3125C2.92192 28.2344 7.64067 29.7734 11.6016 27.7969C13.086 27.0547 14.3672 25.7734 15.1172 24.3047L15.3282 23.8828L15.6407 24.4609C15.9688 25.0781 16.4766 25.7891 16.7891 26.0703C17.0469 26.3125 17.4454 26.3047 17.6954 26.0547C17.9375 25.8203 17.9454 25.4922 17.7188 25.1719C16.8438 23.9766 16.6094 23.5625 16.3438 22.7344C15.75 20.8828 15.9688 18.9219 16.9688 17.2266C17.4454 16.4297 18.5469 15.3672 19.375 14.9063C21.1407 13.9375 22.9375 13.7578 24.8047 14.3828C26.0625 14.8047 27.0625 15.5156 27.9688 16.6484C28.4922 17.3047 28.5391 17.3438 28.8204 17.3438C29.1875 17.3438 29.4766 17.0625 29.4766 16.7188C29.4766 16.1875 28.2422 14.7969 27.0625 14.0078C25.6954 13.1016 23.6954 12.5469 22.2891 12.6875L21.8125 12.7344L22.1875 12.1094C24.0391 9.02344 23.5938 5.07032 21.1016 2.47657C20 1.32813 18.6719 0.570318 17.1094 0.195318C16.3985 0.0234432 14.711 -0.0234318 14.0157 0.109381ZM16.9688 1.55469C19.9454 2.32032 21.9766 4.92969 21.9766 8.00782C21.9766 11.5078 19.3282 14.3672 15.8204 14.6563C13.625 14.8359 11.25 13.7188 9.95317 11.9141C9.52348 11.2969 9.04692 10.2891 8.85942 9.57032C8.6641 8.80469 8.6641 7.20313 8.85942 6.44532C9.57035 3.75782 11.6954 1.83594 14.4141 1.40626C15.0704 1.30469 16.2657 1.37501 16.9688 1.55469ZM9.4766 14.1953C11.961 14.75 13.8985 16.6953 14.4922 19.2266C14.6875 20.0547 14.6719 21.3359 14.4688 22.2031C13.8829 24.6328 12.0782 26.4609 9.61723 27.125C8.77348 27.3516 7.24223 27.3516 6.36723 27.125C5.5391 26.9063 4.43754 26.3438 3.80473 25.8125C2.73442 24.9297 1.90629 23.6484 1.55473 22.3047C1.32035 21.4219 1.32035 19.9063 1.54692 19.0234C1.90629 17.6875 2.75785 16.3594 3.82817 15.4922C4.39067 15.0391 5.50785 14.4531 6.17192 14.2656C7.19535 13.9766 8.39848 13.9531 9.4766 14.1953ZM16.1719 16.0156C16.1719 16.0469 16.1407 16.0938 16.1016 16.1328C16.0625 16.1797 15.8672 16.4844 15.6797 16.8281L15.3282 17.4453L15.1485 17.1016C15.0547 16.9141 14.8672 16.5781 14.7266 16.3672L14.4766 15.9766H15.3282C15.7891 15.9766 16.1719 15.9922 16.1719 16.0156Z" fill="black"/>
<path d="M14.5469 2.74219C13.4219 2.91406 12.4453 3.42188 11.5547 4.30469C11.0625 4.78906 10.8906 5.03125 10.6016 5.63281C10.2422 6.36719 10 7.28125 10 7.88281C10 8.3125 10.3047 8.67188 10.6719 8.67188C11.0391 8.67188 11.3281 8.38281 11.3281 8.02344C11.3281 7.51562 11.5 6.82812 11.7578 6.28906C12.375 5.01562 13.4688 4.24219 14.9062 4.0625C15.2344 4.01562 15.5703 3.96094 15.6406 3.9375C15.8516 3.875 16.0312 3.46875 15.9766 3.20312C15.875 2.73438 15.4688 2.60156 14.5469 2.74219Z" fill="black"/>
<path d="M7.27348 15.3984C5.35942 15.6875 3.74223 16.9609 3.05473 18.75C2.80473 19.3828 2.61723 20.4922 2.70317 20.8125C2.76567 21.0859 3.09379 21.3281 3.37504 21.3281C3.77348 21.3281 3.94535 21.0547 4.04692 20.3125C4.15629 19.4531 4.37504 18.8984 4.84379 18.2734C5.51567 17.3906 6.4766 16.8438 7.58598 16.7188C7.92192 16.6797 8.27348 16.6094 8.35942 16.5625C8.70317 16.375 8.77348 15.9063 8.50004 15.5938C8.28129 15.3516 7.94535 15.3047 7.27348 15.3984Z" fill="black"/>
<path d="M28.3203 18.7266C27.6719 18.7891 26.6797 19 25.9922 19.2344C25.2813 19.4688 24.0547 20.0391 23.6563 20.3203C23.4063 20.5 23.2578 20.5078 23.1172 20.3359C23.0547 20.2656 22.836 20.125 22.6172 20.0313C21.6719 19.5859 20.5391 19.9609 20.0391 20.875C19.6407 21.6016 19.7657 22.5625 20.3282 23.1797L20.4844 23.3516L20.0938 24.0391C18.1719 27.3828 18.2188 31.5469 20.211 34.8594L20.4766 35.3125L20.2891 35.5625C19.9219 36.0547 19.8125 36.3438 19.8125 36.875C19.8125 38 20.6485 38.8359 21.7735 38.8281C22.3125 38.8203 22.6875 38.7031 23.0703 38.4063L23.3438 38.1953L24.0391 38.5859C27.5235 40.5547 31.7032 40.4453 35.1172 38.2891C35.2578 38.2031 35.3282 38.2266 35.6797 38.4609C36.5703 39.0547 37.5703 38.9844 38.2813 38.2656C39 37.5547 39.0235 36.3672 38.3438 35.5234C38.1719 35.3125 38.1719 35.3047 38.3047 35.0938C38.3828 34.9766 38.6016 34.5781 38.7891 34.2031C40.5157 30.8281 40.3594 27.0313 38.3516 23.6563L38.1797 23.3672L38.3907 23.0938C38.711 22.6719 38.8282 22.3203 38.8282 21.7969C38.8282 21.2188 38.6797 20.8359 38.2969 20.4375C37.8985 20.0234 37.4844 19.8438 36.8907 19.8438C36.3594 19.8438 35.9766 19.9688 35.5625 20.2891L35.2969 20.4922L35.0078 20.3203C32.8985 19.0625 30.6172 18.5156 28.3203 18.7266ZM31.1328 20.1953C32.3828 20.4531 33.5157 20.9297 34.586 21.6484C35.3438 22.1641 35.5078 22.1563 36.1094 21.6016C36.4922 21.2422 36.6172 21.1719 36.8516 21.1719C37.25 21.1719 37.5 21.4219 37.5 21.8047C37.5 22.0547 37.4297 22.1719 37.0703 22.5625C36.5078 23.1719 36.5078 23.3047 37.0625 24.1563C38.1485 25.8359 38.6172 27.3984 38.6172 29.3359C38.6172 31.2891 38.0782 33.0547 37 34.6328C36.5 35.3672 36.5078 35.5781 37.0703 36.1641C37.4141 36.5313 37.5 36.6641 37.5 36.875C37.5 37.25 37.2422 37.5 36.8594 37.5C36.5938 37.5 36.4922 37.4375 36.1016 37.0703C35.5235 36.5156 35.3516 36.5078 34.6328 37C31.4141 39.2031 27.2969 39.2031 24.0157 37C23.2813 36.5078 23.1094 36.5156 22.5157 37.0703C22.1563 37.4063 21.9922 37.5 21.8047 37.5C21.4532 37.5 21.2813 37.3906 21.1797 37.1094C21.0703 36.7813 21.1719 36.5391 21.6485 36.0391C21.9141 35.7578 22.0313 35.5703 22.0313 35.4219C22.0313 35.2969 21.8438 34.9219 21.5625 34.4844C19.4766 31.2578 19.4844 27.3672 21.5938 24.1406C22.1485 23.2969 22.1485 23.1641 21.6485 22.6328C21.1797 22.1406 21.0625 21.8828 21.1797 21.5859C21.2813 21.3047 21.4766 21.1797 21.7891 21.1719C22 21.1719 22.1407 21.2578 22.5157 21.6016C23.1172 22.1641 23.3125 22.1719 24.0391 21.6719C25.1328 20.9219 26.5703 20.3359 27.7344 20.1641C28.0547 20.1172 28.4063 20.0625 28.5157 20.0469C28.8985 19.9766 30.5235 20.0703 31.1328 20.1953Z" fill="black"/>
<path d="M28.4766 21.4063C27.5859 21.5 26.6563 21.7734 25.8125 22.1875C24.4297 22.8594 24.2266 23.2344 24.8672 23.9531C25.0547 24.1641 25.2266 24.3984 25.2578 24.4688C25.3359 24.6953 25.1563 25.0781 24.9063 25.2031C24.5859 25.3672 24.375 25.2969 23.9063 24.8828C23.4609 24.4844 23.1875 24.4375 22.8672 24.6875C22.6328 24.875 22.0078 26.0547 21.75 26.8203C21.5234 27.4766 21.3281 28.6563 21.3281 29.375C21.3281 30.8828 22.0078 32.9766 22.7891 33.9141C23.0703 34.25 23.4766 34.2344 23.8281 33.8672C24.2109 33.4766 24.5313 33.3438 24.8359 33.4453C25.125 33.5469 25.2344 33.7188 25.2344 34.0859C25.2344 34.2969 25.1563 34.4453 24.8828 34.75C24.2422 35.4688 24.4063 35.8047 25.7188 36.4609C28.0547 37.6172 30.6094 37.6172 32.9531 36.4375C34.2344 35.7969 34.4219 35.4609 33.8359 34.8203C33.4375 34.3828 33.3359 34.1797 33.3984 33.8984C33.4609 33.6094 33.7109 33.4375 34.0547 33.4375C34.2578 33.4375 34.3984 33.5156 34.6953 33.7891C35 34.0703 35.125 34.1406 35.3594 34.1406C35.7422 34.1406 36.0078 33.8438 36.4922 32.8594C37.5938 30.5859 37.5781 28.0391 36.4375 25.7266C35.7969 24.4219 35.4844 24.2656 34.75 24.8828C34.5234 25.0781 34.2578 25.2578 34.1641 25.2813C33.9375 25.3438 33.5859 25.1641 33.4453 24.9141C33.2891 24.6328 33.3828 24.3672 33.7891 23.9063C34.2266 23.4141 34.25 23.1406 33.9063 22.8125C33.6484 22.5703 32.4453 21.9609 31.8438 21.7578C30.8594 21.4375 29.4766 21.2891 28.4766 21.4063ZM30.3203 22.7734C30.9922 22.875 31.8203 23.125 32.2578 23.3594L32.4141 23.4375L32.2578 23.75C31.75 24.7266 32.2266 26.0234 33.2734 26.4609C33.6953 26.6406 34.4219 26.625 34.8672 26.4219L35.2422 26.2578L35.4375 26.6953C36.1328 28.25 36.1328 30.4219 35.4375 31.9766L35.2422 32.4141L34.875 32.2578C34.3828 32.0391 33.7422 32.0391 33.2109 32.2656C32.2031 32.7031 31.7656 33.9453 32.2578 34.9453L32.4063 35.25L32 35.4375C31.1797 35.8125 30.4297 35.9609 29.3359 35.9609C28.2344 35.9609 27.4922 35.8125 26.6719 35.4375L26.2578 35.2422L26.4219 34.8672C27.1797 33.1641 25.3828 31.4297 23.7344 32.2734L23.4375 32.4219L23.2813 32.1172C23.1953 31.9453 23.0313 31.5 22.9219 31.1172C22.7344 30.5156 22.7109 30.2969 22.7109 29.3359C22.7109 28.375 22.7344 28.1563 22.9219 27.5547C23.0313 27.1719 23.1953 26.7266 23.2813 26.5547L23.4375 26.25L23.7344 26.3984C24.7109 26.8984 25.9375 26.4844 26.4063 25.4922C26.6484 24.9922 26.6484 24.3203 26.4219 23.8047L26.2578 23.4297L26.6719 23.2422C27.8594 22.7188 28.9922 22.5703 30.3203 22.7734Z" fill="black"/>
<path d="M28.8829 26.7266C28.3594 26.8125 27.836 27.0859 27.4454 27.4687C25.7735 29.1406 26.961 31.9766 29.336 31.9687C30.4766 31.9687 31.3985 31.3281 31.8204 30.25C32.0235 29.7344 32.0001 28.8125 31.7657 28.3047C31.4923 27.7266 31.2735 27.4531 30.8282 27.1562C30.2266 26.75 29.5782 26.6094 28.8829 26.7266ZM30.0704 28.2656C30.4298 28.5312 30.6251 28.8984 30.6251 29.3125C30.6251 30.9375 28.3516 31.1484 28.0079 29.5547C27.8829 28.9375 28.3751 28.1953 29.0001 28.0703C29.3985 27.9844 29.7969 28.0547 30.0704 28.2656Z" fill="black"/>
</g>
<defs>
<clipPath id="clip0_107_324">
<rect width="40" height="40" fill="white"/>
</clipPath>
</defs>
</svg>
