<svg width="40" height="40" viewBox="0 0 40 40" fill="none" xmlns="http://www.w3.org/2000/svg">
<g clip-path="url(#clip0_106_261)">
<path d="M4.08006 4.48C2.88006 7.68 2.40006 10.72 2.40006 15.2C2.40006 20 2.16006 21.52 1.20006 21.92C-0.319941 22.48 -0.319941 25.28 1.20006 26.16C2.00006 26.64 2.40006 28.64 2.56006 33.2L2.80006 39.6H6.40006H10.0001L10.2401 33.2C10.4001 28.64 10.8001 26.64 11.6001 26.16C13.1201 25.28 13.1201 22.48 11.6001 21.92C10.6401 21.52 10.4001 19.84 10.4001 14.08C10.4001 8.64 10.0001 5.92 8.80006 3.36C8.00006 1.52 6.96006 3.8147e-06 6.56006 3.8147e-06C6.16006 3.8147e-06 5.04006 2 4.08006 4.48ZM8.80006 14.56V21.6H6.40006H4.00006V15.2C4.00006 11.04 4.48006 7.68 5.28006 5.76L6.56006 2.8L7.68006 5.2C8.24006 6.56001 8.72006 10.56 8.80006 14.56ZM11.2001 24C11.2001 24.48 9.04006 24.8 6.40006 24.8C3.76006 24.8 1.60006 24.48 1.60006 24C1.60006 23.52 3.76006 23.2 6.40006 23.2C9.04006 23.2 11.2001 23.52 11.2001 24ZM8.80006 32.4V38.4H6.40006H4.00006V32.4V26.4H6.40006H8.80006V32.4Z" fill="black"/>
<path d="M5.6001 29.6C5.6001 30 6.0001 30.4 6.4001 30.4C6.8801 30.4 7.2001 30 7.2001 29.6C7.2001 29.12 6.8801 28.8 6.4001 28.8C6.0001 28.8 5.6001 29.12 5.6001 29.6Z" fill="black"/>
<path d="M5.6001 34.4C5.6001 34.8 6.0001 35.2 6.4001 35.2C6.8801 35.2 7.2001 34.8 7.2001 34.4C7.2001 33.92 6.8801 33.6 6.4001 33.6C6.0001 33.6 5.6001 33.92 5.6001 34.4Z" fill="black"/>
<path d="M16.8001 11.12C16.8001 12 17.3601 12.8 17.9201 12.96C18.8801 13.12 18.6401 14.24 16.8001 18.4C14.1601 24.24 13.9201 26.88 15.5201 30.64C17.2801 34.8 19.6801 36.4 24.0001 36.4C28.3201 36.4 30.7201 34.8 32.4801 30.64C34.0801 26.8 33.8401 24.48 31.2001 18.4C28.4001 11.92 28.1601 10.8 30.2401 12.08C31.2801 12.72 31.6001 13.68 31.3601 14.96C30.9601 16.96 33.0401 20 34.8001 20C35.8401 20 36.8001 23.44 36.8001 27.28C36.8001 28.56 37.2001 29.6 37.6801 29.6C38.3201 29.6 38.4801 28.08 38.0801 24.48C37.6801 20.48 37.8401 19.2 38.8001 18.4C41.8401 15.84 38.7201 10.64 34.6401 11.44C33.2801 11.68 31.7601 11.44 30.8801 10.72C29.8401 10 27.2001 9.60001 23.0401 9.60001C17.4401 9.60001 16.8001 9.76001 16.8001 11.12ZM27.2001 13.28C28.4801 16.56 28.2401 16.8 24.0001 16.8C19.7601 16.8 19.5201 16.56 20.8001 13.28C21.3601 11.68 22.0801 11.2 24.0001 11.2C25.9201 11.2 26.6401 11.68 27.2001 13.28ZM37.6001 14C38.1601 14.64 38.3201 15.84 38.0001 16.56C37.5201 17.84 37.3601 17.76 36.0001 16C35.1201 14.88 34.4001 13.76 34.4001 13.36C34.4001 12.32 36.5601 12.72 37.6001 14ZM34.4801 16.96C35.3601 18.64 35.3601 18.72 34.1601 17.68C33.3601 17.12 32.8001 16.32 32.8001 15.92C32.8001 14.72 33.5201 15.12 34.4801 16.96ZM20.4801 20.16C20.2401 21.2 20.0001 22.24 20.0001 22.56C20.0001 23.52 16.8001 23.28 16.8001 22.32C16.8001 20.64 18.4801 18.4 19.7601 18.4C20.6401 18.4 20.8801 18.88 20.4801 20.16ZM25.6001 18.96C25.6001 19.36 25.8401 20.4 26.0801 21.36C26.5601 22.96 26.3201 23.2 24.0801 23.2C21.4401 23.2 21.3601 23.04 22.0801 20.16C22.5601 18.56 25.6001 17.52 25.6001 18.96ZM30.4001 19.92C30.8001 20.8 31.2001 21.84 31.2001 22.32C31.2001 23.28 28.0001 23.52 28.0001 22.56C28.0001 22.24 27.7601 21.2 27.5201 20.16C26.8801 17.92 29.2001 17.68 30.4001 19.92ZM20.0001 26.8C20.0001 28.4 19.6001 28.8 18.0001 28.8C16.4001 28.8 16.0001 28.4 16.0001 26.8C16.0001 25.2 16.4001 24.8 18.0001 24.8C19.6001 24.8 20.0001 25.2 20.0001 26.8ZM26.4001 26.8C26.4001 28.48 26.0001 28.8 24.0001 28.8C22.0001 28.8 21.6001 28.48 21.6001 26.8C21.6001 25.12 22.0001 24.8 24.0001 24.8C26.0001 24.8 26.4001 25.12 26.4001 26.8ZM32.0001 26.8C32.0001 28.4 31.6001 28.8 30.0001 28.8C28.4001 28.8 28.0001 28.4 28.0001 26.8C28.0001 25.2 28.4001 24.8 30.0001 24.8C31.6001 24.8 32.0001 25.2 32.0001 26.8ZM20.4801 31.6C21.4401 34 20.3201 34.4 18.4801 32.48L16.5601 30.4H18.3201C19.2801 30.4 20.2401 30.96 20.4801 31.6ZM25.6001 31.76C25.6001 32.56 25.2001 33.76 24.8001 34.4C24.0801 35.44 23.9201 35.44 23.2001 34.4C21.8401 32.4 22.2401 30.4 24.0001 30.4C24.9601 30.4 25.6001 30.96 25.6001 31.76ZM29.5201 32.48C28.4801 33.6 27.5201 34.08 27.3601 33.6C26.8001 32 27.9201 30.4 29.6801 30.4H31.4401L29.5201 32.48Z" fill="black"/>
</g>
<defs>
<clipPath id="clip0_106_261">
<rect width="40" height="40" fill="white"/>
</clipPath>
</defs>
</svg>
