<svg width="40" height="40" viewBox="0 0 40 40" fill="none" xmlns="http://www.w3.org/2000/svg">
<path d="M27.2001 5.19999C25.2801 7.11999 23.5201 8.55999 23.2801 8.39999C23.1201 8.15999 21.76 9.11999 20.3201 10.48C17.5201 13.2 14.8 13.04 17.28 10.32C19.12 8.23999 18.16 4.95999 15.5201 4.31999C13.84 3.83999 12.88 4.31999 10.24 7.03999C7.52005 9.67999 7.04005 10.64 7.52005 12.32C8.16005 14.96 11.44 15.92 13.52 14.08C14.64 13.04 15.2 12.96 15.6 13.6C16 14.16 13.92 16.8 10.48 20.32C7.36005 23.44 4.80005 26.48 4.80005 26.96C4.80005 28.72 7.36005 30.4 10.08 30.4C12.4 30.4 13.2 30.96 15.68 34.4C18.8 38.8 19.2801 39.04 21.1201 37.12C22.7201 35.6 22.7201 34.48 21.2001 32.48C20.16 31.12 20.2401 30.72 21.6 28.8C23.5201 26.08 23.5201 25.6 21.84 22C19.84 17.76 21.2001 17.68 25.4401 21.84C29.6 25.92 30.4801 26.24 32.0001 24.4C32.8801 23.28 32.4801 22.56 29.2001 19.2C27.1201 17.04 25.6 14.88 25.76 14.24C26 13.68 26.2401 12.8 26.3201 12.4C26.4001 11.92 28.1601 9.91999 30.1601 7.83999C33.2801 4.63999 33.6801 3.91999 32.8001 2.79999C31.3601 1.11999 31.1201 1.19999 27.2001 5.19999ZM31.2001 4.23999C31.2001 4.39999 29.68 5.91999 27.84 7.59999L24.4001 10.8L27.6 7.35999C30.4801 4.23999 31.2001 3.59999 31.2001 4.23999ZM16.5601 6.87999C17.04 8.23999 12.4 13.6 10.64 13.6C8.32005 13.6 8.64005 11.04 11.28 8.31999C14.16 5.35999 15.76 4.87999 16.5601 6.87999ZM24 11.68C24.9601 12.72 24 14 17.12 20.88C12.8 25.2 8.80005 28.8 8.16005 28.8C7.60005 28.8 6.96005 28.24 6.64005 27.52C6.32005 26.64 8.56005 23.84 14.08 18.32C18.4001 14 22.24 10.4 22.48 10.4C22.8001 10.4 23.4401 10.96 24 11.68ZM27.2001 19.28C28.9601 21.04 30.4001 22.96 30.4001 23.44C30.4001 23.92 28.8001 22.72 26.8001 20.8C23.6 17.68 22.48 16 23.6 16C23.76 16 25.3601 17.44 27.2001 19.28ZM20.8001 23.12C21.5201 24.96 21.5201 25.84 20.8001 27.28C19.84 29.04 19.76 29.04 18.64 27.6C17.68 26.24 17.76 26 18.96 25.52C20.2401 25.12 20.2401 25.04 18.96 24.32C18.08 23.76 17.76 23.04 18.08 22.16C18.8 20.16 19.68 20.48 20.8001 23.12ZM18.24 30.16C20 33.52 20.64 35.68 20.16 36.16C19.68 36.64 18.72 36 17.6 34.24C16.5601 32.8 14.88 30.8 13.76 29.84C11.68 28.08 11.68 28.08 13.2 26.48C14 25.52 14.88 24.8 15.12 24.88C15.36 24.88 16.8 27.28 18.24 30.16Z" fill="black"/>
</svg>
