<svg width="35" height="35" viewBox="0 0 35 35" fill="none" xmlns="http://www.w3.org/2000/svg">
<g clip-path="url(#clip0_7_86)">
<path fill-rule="evenodd" clip-rule="evenodd" d="M10.2083 30.625C10.2083 29.0142 11.5141 27.7083 13.125 27.7083C14.7358 27.7083 16.0416 29.0142 16.0416 30.625C16.0416 32.2358 14.7358 33.5417 13.125 33.5417C11.5141 33.5417 10.2083 32.2358 10.2083 30.625Z" fill="#111113"/>
<path fill-rule="evenodd" clip-rule="evenodd" d="M26.25 30.625C26.25 29.0142 27.5558 27.7083 29.1667 27.7083C30.7775 27.7083 32.0833 29.0142 32.0833 30.625C32.0833 32.2358 30.7775 33.5417 29.1667 33.5417C27.5558 33.5417 26.25 32.2358 26.25 30.625Z" fill="#111113"/>
<path fill-rule="evenodd" clip-rule="evenodd" d="M0 1.45833C0 0.652918 0.652918 0 1.45833 0H7.29167C7.98675 0 8.58523 0.490562 8.72164 1.17213L9.94646 7.29167H33.5417C33.9763 7.29167 34.3883 7.48552 34.6653 7.82039C34.9424 8.15527 35.0556 8.59626 34.9742 9.02319L32.6388 21.2695C32.4387 22.2766 31.8908 23.1813 31.091 23.8252C30.2951 24.4658 29.3003 24.8077 28.2791 24.7917H14.1293C13.108 24.8077 12.1132 24.4658 11.3174 23.8252C10.5179 23.1816 9.97009 22.2774 9.76986 21.2708C9.76977 21.2703 9.76994 21.2712 9.76986 21.2708L7.33365 9.09884C7.32377 9.05857 7.31556 9.01765 7.3091 8.97615L6.09629 2.91667H1.45833C0.652918 2.91667 0 2.26375 0 1.45833ZM10.5302 10.2083L12.6304 20.7013C12.6971 21.037 12.8797 21.3386 13.1463 21.5532C13.4129 21.7678 13.7465 21.8818 14.0887 21.8753L14.1167 21.875H28.2917L28.3196 21.8753C28.6618 21.8818 28.9954 21.7678 29.262 21.5532C29.5274 21.3396 29.7096 21.0398 29.777 20.706L31.7789 10.2083H10.5302Z" fill="#111113"/>
</g>
<defs>
<clipPath id="clip0_7_86">
<rect width="35" height="35" fill="white"/>
</clipPath>
</defs>
</svg>
