<svg width="111" height="44" viewBox="0 0 111 44" fill="none" xmlns="http://www.w3.org/2000/svg">
<path fill-rule="evenodd" clip-rule="evenodd" d="M25.0117 1H93.0117V10H94.0117V1V0H93.0117H25.0117H24.0117V1V11H25.0117V1ZM25.0117 33H24.0117V43V44H25.0117H93.0117H94.0117V43V32H93.0117V43H25.0117V33ZM93.0117 29.056C93.2789 28.9944 93.5402 28.9148 93.7957 28.8174C93.869 28.789 93.941 28.7603 94.0117 28.7314C94.6189 28.4829 95.1341 28.2144 95.5574 27.9258C96.0372 27.5964 96.2772 27.4173 96.2772 27.3887L95.5037 26.25C95.5037 26.2786 95.3247 26.4004 94.9666 26.6152C94.7014 26.7691 94.3831 26.9151 94.0117 27.0532C93.8818 27.1015 93.7453 27.1489 93.6023 27.1953C93.4111 27.2574 93.2142 27.3087 93.0117 27.3493C92.6305 27.4257 92.2294 27.4639 91.8084 27.4639C90.8559 27.4639 90.0861 27.1058 89.4988 26.3896C88.9116 25.6663 88.618 24.7031 88.618 23.5L93.0117 23.4751L94.0117 23.4695L96.2127 23.457C96.227 23.3854 96.2485 23.2314 96.2772 22.9951C96.3058 22.7588 96.3201 22.5225 96.3201 22.2861C96.3201 19.851 95.5507 18.2766 94.0117 17.5629C93.7083 17.4222 93.375 17.315 93.0117 17.2412C92.6112 17.1598 92.1743 17.1191 91.701 17.1191C90.6554 17.1191 89.7208 17.3877 88.8973 17.9248C88.0809 18.4619 87.4435 19.1995 86.9852 20.1377C86.534 21.0758 86.3084 22.125 86.3084 23.2852C86.3084 25.1471 86.7524 26.6009 87.6404 27.6465C88.5356 28.6921 89.8497 29.2148 91.5828 29.2148C92.0763 29.2148 92.5526 29.1619 93.0117 29.056ZM93.0117 19.2532C92.649 18.9763 92.1727 18.8379 91.5828 18.8379C90.7306 18.8379 90.0538 19.1243 89.5525 19.6973C89.0584 20.2702 88.7755 20.9863 88.7039 21.8457H93.0117H93.9891C93.9891 20.9505 93.7957 20.2272 93.409 19.6758C93.2966 19.5104 93.1642 19.3696 93.0117 19.2532ZM2.35254 27.4854C1.9873 27.4209 1.80469 27.3815 1.80469 27.3672L1.56836 25.4766H0.0214844V28.7314C0.093099 28.7673 0.282878 28.821 0.59082 28.8926C0.898763 28.9642 1.31055 29.0358 1.82617 29.1074C2.3418 29.179 2.90039 29.2148 3.50195 29.2148C4.89128 29.2148 6.04427 28.8926 6.96094 28.248C7.8776 27.6035 8.33594 26.6725 8.33594 25.4551C8.33594 24.8105 8.16764 24.277 7.83105 23.8545C7.49447 23.4248 7.08268 23.099 6.5957 22.877C6.10872 22.6478 5.48568 22.4007 4.72656 22.1357C3.88151 21.8564 3.24772 21.5915 2.8252 21.3408C2.40983 21.083 2.20215 20.7178 2.20215 20.2451C2.20215 19.264 2.85384 18.7734 4.15723 18.7734C4.47949 18.7734 4.77311 18.7913 5.03809 18.8271C5.30306 18.863 5.50716 18.9023 5.65039 18.9453C5.80078 18.9883 5.89746 19.0169 5.94043 19.0312L6.29492 20.75H7.72363L7.78809 17.7852C7.68783 17.7493 7.44076 17.6777 7.04688 17.5703C6.66016 17.4629 6.1875 17.3626 5.62891 17.2695C5.07747 17.1693 4.54395 17.1191 4.02832 17.1191C2.83952 17.1191 1.86914 17.4163 1.11719 18.0107C0.372396 18.6051 0 19.4538 0 20.5566C0 21.2585 0.171875 21.8314 0.515625 22.2754C0.859375 22.7122 1.27116 23.0488 1.75098 23.2852C2.23796 23.5143 2.87174 23.7542 3.65234 24.0049C4.50456 24.2699 5.13119 24.5241 5.53223 24.7676C5.94043 25.0039 6.14453 25.3584 6.14453 25.8311C6.13737 26.9912 5.30664 27.5713 3.65234 27.5713C3.15104 27.5713 2.71777 27.5426 2.35254 27.4854ZM16.0576 17.6133C15.3701 17.9427 14.79 18.3079 14.3174 18.709V12.0596L10.2461 12.167V13.3809L12.1152 13.8213V27.2383L10.2461 27.7861V29H15.7461V27.7861L14.3174 27.2383V20.75C14.3174 20.7214 14.4785 20.5531 14.8008 20.2451C15.123 19.9372 15.5241 19.6507 16.0039 19.3857C16.4909 19.1208 17.0136 18.9883 17.5722 18.9883C18.2597 18.9883 18.7503 19.1745 19.0439 19.5469C19.3375 19.9193 19.4844 20.5029 19.4844 21.2979V27.2598L18.0556 27.7861V29H23.3408V27.7861L21.6865 27.2383V21.083C21.6865 19.8369 21.3929 18.8665 20.8056 18.1719C20.2184 17.4701 19.3375 17.1191 18.1631 17.1191C17.4469 17.1191 16.7451 17.2839 16.0576 17.6133ZM34.6718 18.6982C33.7623 17.6455 32.4947 17.1191 30.8691 17.1191C29.7734 17.1191 28.803 17.3734 27.958 17.8818C27.1129 18.3831 26.4505 19.1029 25.9707 20.041C25.498 20.972 25.2617 22.0534 25.2617 23.2852C25.2617 25.2331 25.7236 26.7083 26.6474 27.7109C27.5712 28.7135 28.8675 29.2148 30.5361 29.2148C31.6246 29.2148 32.5843 28.957 33.415 28.4414C34.2529 27.9186 34.8974 27.181 35.3486 26.2285C35.8069 25.276 36.0361 24.1839 36.0361 22.9521C36.0361 21.1618 35.5813 19.7438 34.6718 18.6982ZM28.3447 19.9551C28.8675 19.2389 29.6731 18.8809 30.7617 18.8809C32.7382 18.8809 33.7265 20.2738 33.7265 23.0596C33.7265 24.5277 33.483 25.6305 32.996 26.3682C32.5091 27.0986 31.7285 27.4639 30.6542 27.4639C28.5989 27.4567 27.5712 26.0244 27.5712 23.167C27.5712 21.7347 27.8291 20.6641 28.3447 19.9551ZM41.373 26.3896C40.7857 25.6663 40.4921 24.7031 40.4921 23.5L48.0868 23.457C48.1012 23.3854 48.1227 23.2314 48.1513 22.9951C48.1799 22.7588 48.1943 22.5225 48.1943 22.2861C48.1943 18.8415 46.6546 17.1191 43.5751 17.1191C42.5296 17.1191 41.595 17.3877 40.7714 17.9248C39.955 18.4619 39.3176 19.1995 38.8593 20.1377C38.4081 21.0758 38.1825 22.125 38.1825 23.2852C38.1825 25.1471 38.6266 26.6009 39.5146 27.6465C40.4098 28.6921 41.7239 29.2148 43.457 29.2148C44.2376 29.2148 44.9752 29.0824 45.6699 28.8174C46.3717 28.5452 46.9589 28.248 47.4316 27.9258C47.9114 27.5964 48.1513 27.4173 48.1513 27.3887L47.3779 26.25C47.3779 26.2786 47.1988 26.4004 46.8408 26.6152C46.4827 26.8229 46.0279 27.0163 45.4765 27.1953C44.9251 27.3743 44.3271 27.4639 43.6825 27.4639C42.7301 27.4639 41.9602 27.1058 41.373 26.3896ZM45.2831 19.6758C45.6699 20.2272 45.8632 20.9505 45.8632 21.8457H40.5781C40.6497 20.9863 40.9325 20.2702 41.4267 19.6973C41.928 19.1243 42.6047 18.8379 43.457 18.8379C44.2949 18.8379 44.9036 19.1172 45.2831 19.6758ZM52.8974 27.4854C52.5321 27.4209 52.3495 27.3815 52.3495 27.3672L52.1132 25.4766H50.5663V28.7314C50.6379 28.7673 50.8277 28.821 51.1356 28.8926C51.4436 28.9642 51.8554 29.0358 52.371 29.1074C52.8866 29.179 53.4452 29.2148 54.0468 29.2148C55.4361 29.2148 56.5891 28.8926 57.5058 28.248C58.4224 27.6035 58.8808 26.6725 58.8808 25.4551C58.8808 24.8105 58.7125 24.277 58.3759 23.8545C58.0393 23.4248 57.6275 23.099 57.1405 22.877C56.6535 22.6478 56.0305 22.4007 55.2714 22.1357C54.4263 21.8564 53.7925 21.5915 53.37 21.3408C52.9547 21.083 52.747 20.7178 52.747 20.2451C52.747 19.264 53.3987 18.7734 54.7021 18.7734C55.0243 18.7734 55.3179 18.7913 55.5829 18.8271C55.8479 18.863 56.052 18.9023 56.1952 18.9453C56.3456 18.9883 56.4423 19.0169 56.4853 19.0312L56.8397 20.75H58.2685L58.3329 17.7852C58.2327 17.7493 57.9856 17.6777 57.5917 17.5703C57.205 17.4629 56.7323 17.3626 56.1737 17.2695C55.6223 17.1693 55.0888 17.1191 54.5731 17.1191C53.3843 17.1191 52.414 17.4163 51.662 18.0107C50.9172 18.6051 50.5448 19.4538 50.5448 20.5566C50.5448 21.2585 50.7167 21.8314 51.0605 22.2754C51.4042 22.7122 51.816 23.0488 52.2958 23.2852C52.7828 23.5143 53.4166 23.7542 54.1972 24.0049C55.0494 24.2699 55.676 24.5241 56.0771 24.7676C56.4853 25.0039 56.6894 25.3584 56.6894 25.8311C56.6822 26.9912 55.8515 27.5713 54.1972 27.5713C53.6959 27.5713 53.2626 27.5426 52.8974 27.4854ZM69.0282 27.4854C68.6629 27.4209 68.4803 27.3815 68.4803 27.3672L68.244 25.4766H66.6971V28.7314C66.7687 28.7673 66.9585 28.821 67.2665 28.8926C67.5744 28.9642 67.9862 29.0358 68.5018 29.1074C69.0174 29.179 69.576 29.2148 70.1776 29.2148C71.5669 29.2148 72.7199 28.8926 73.6366 28.248C74.5532 27.6035 75.0116 26.6725 75.0116 25.4551C75.0116 24.8105 74.8433 24.277 74.5067 23.8545C74.1701 23.4248 73.7583 23.099 73.2713 22.877C72.7844 22.6478 72.1613 22.4007 71.4022 22.1357C70.5572 21.8564 69.9234 21.5915 69.5008 21.3408C69.0855 21.083 68.8778 20.7178 68.8778 20.2451C68.8778 19.264 69.5295 18.7734 70.8329 18.7734C71.1551 18.7734 71.4488 18.7913 71.7137 18.8271C71.9787 18.863 72.1828 18.9023 72.326 18.9453C72.4764 18.9883 72.5731 19.0169 72.6161 19.0312L72.9706 20.75H74.3993L74.4637 17.7852C74.3635 17.7493 74.1164 17.6777 73.7225 17.5703C73.3358 17.4629 72.8631 17.3626 72.3046 17.2695C71.7531 17.1693 71.2196 17.1191 70.704 17.1191C69.5152 17.1191 68.5448 17.4163 67.7928 18.0107C67.048 18.6051 66.6756 19.4538 66.6756 20.5566C66.6756 21.2585 66.8475 21.8314 67.1913 22.2754C67.535 22.7122 67.9468 23.0488 68.4266 23.2852C68.9136 23.5143 69.5474 23.7542 70.328 24.0049C71.1802 24.2699 71.8068 24.5241 72.2079 24.7676C72.6161 25.0039 72.8202 25.3584 72.8202 25.8311C72.813 26.9912 71.9823 27.5713 70.328 27.5713C69.8267 27.5713 69.3934 27.5426 69.0282 27.4854ZM81.2186 19.0957H84.409V17.4521H81.2186V14.2402L79.0164 14.6807V17.4521L76.8143 17.667V19.0957H79.0164V26.0352C79.0164 27.1738 79.2492 27.9902 79.7147 28.4844C80.1873 28.9714 80.7961 29.2148 81.5409 29.2148C82.6008 29.2148 83.6284 28.8496 84.6239 28.1191L84.033 26.959C83.3599 27.3242 82.7869 27.5068 82.3143 27.5068C81.5838 27.5068 81.2186 27.0592 81.2186 26.1641V19.0957ZM105.492 17.1191C104.303 17.1191 103.19 17.6025 102.151 18.5693L101.969 17.3447L98.2303 17.4521V18.6553L100.099 19.0957V32.4053L98.3377 32.8457V34.0596H104.611V32.8457L102.302 32.4053V28.9141C102.989 29.1146 103.648 29.2148 104.278 29.2148C106.248 29.2148 107.73 28.6419 108.725 27.4961C109.721 26.3431 110.219 24.7926 110.219 22.8447C110.219 21.083 109.817 19.6901 109.015 18.666C108.22 17.6348 107.046 17.1191 105.492 17.1191ZM102.592 27.1631C102.427 27.0986 102.33 27.0521 102.302 27.0234V20.417C102.302 20.374 102.405 20.2201 102.613 19.9551C102.828 19.6901 103.139 19.4466 103.548 19.2246C103.963 18.9954 104.464 18.8809 105.052 18.8809C106.004 18.8809 106.717 19.2604 107.189 20.0195C107.669 20.7715 107.909 21.7848 107.909 23.0596C107.909 25.9958 106.81 27.4639 104.611 27.4639C104.131 27.4639 103.716 27.4316 103.365 27.3672C103.021 27.2956 102.763 27.2275 102.592 27.1631Z" fill="black"/>
</svg>
